<?xml version="1.0" encoding="UTF-8" standalone="no"?>
<svg
   xmlns:dc="http://purl.org/dc/elements/1.1/"
   xmlns:cc="http://creativecommons.org/ns#"
   xmlns:rdf="http://www.w3.org/1999/02/22-rdf-syntax-ns#"
   xmlns:svg="http://www.w3.org/2000/svg"
   xmlns="http://www.w3.org/2000/svg"
   xmlns:sodipodi="http://sodipodi.sourceforge.net/DTD/sodipodi-0.dtd"
   xmlns:inkscape="http://www.inkscape.org/namespaces/inkscape"
   inkscape:version="1.0 (4035a4fb49, 2020-05-01)"
   sodipodi:docname="snehp.svg"
   id="svg8"
   preserveAspectRatio="xMidYMid meet"
   viewBox="0 0 225.000000 225.000000"
   height="225.000000pt"
   width="225.000000pt"
   version="1.0">
  <defs
     id="defs12" />
  <sodipodi:namedview
     inkscape:current-layer="svg8"
     inkscape:window-maximized="1"
     inkscape:window-y="-9"
     inkscape:window-x="-9"
     inkscape:cy="150"
     inkscape:cx="150"
     inkscape:zoom="2.7666667"
     showgrid="false"
     id="namedview10"
     inkscape:window-height="1001"
     inkscape:window-width="1920"
     inkscape:pageshadow="2"
     inkscape:pageopacity="0"
     guidetolerance="10"
     gridtolerance="10"
     objecttolerance="10"
     borderopacity="1"
     bordercolor="#666666"
     pagecolor="#ffffff" />
  <metadata
     id="metadata2">
Created by potrace 1.16, written by Peter Selinger 2001-2019
<rdf:RDF>
  <cc:Work
     rdf:about="">
    <dc:format>image/svg+xml</dc:format>
    <dc:type
       rdf:resource="http://purl.org/dc/dcmitype/StillImage" />
  </cc:Work>
</rdf:RDF>
</metadata>
  <g
     style="fill:#ffff00"
     id="g6"
     stroke="none"
     fill="#000000"
     transform="translate(0.000000,225.000000) scale(0.100000,-0.100000)">
    <path
       style="fill:#ffff00"
       id="path4"
       d="M1070 2135 c-154 -36 -318 -154 -385 -278 -22 -41 -36 -57 -56 -61 -68 -13 -98 -140 -51 -219 15 -26 23 -57 24 -95 l2 -57 3 52 4 52 26 -12 c17 -7 35 -31 50 -66 13 -29 22 -55 20 -58 -2 -2 -16 1 -31 6 -14 6 -33 8 -41 5 -9 -4 -15 -1 -15 7 0 11 -2 11 -10 -1 -8 -13 -16 -12 -66 5 -32 11 -68 18 -80 17 -12 -2 -38 4 -58 12 -45 19 -62 13 -75 -26 -28 -80 -5 -194 47 -241 17 -15 19 -24 11 -44 -13 -36 -11 -100 5 -131 8 -15 32 -44 55 -64 23 -21 41 -46 41 -58 0 -28 32 -90 62 -117 31 -30 102 -60 161 -68 l47 -7 0 -58 0 -57 -52 -6 c-88 -11 -135 -63 -145 -160 -14 -135 89 -256 217 -257 14 0 47 -11 74 -25 64 -32 146 -34 195 -4 32 19 36 19 100 5 160 -35 290 -28 390 22 64 32 110 83 134 150 l18 50 39 -5 c98 -13 160 71 115 157 -20 38 -43 50 -99 50 l-46 0 0 58 c0 31 -7 100 -15 152 -10 68 -11 98 -3 107 6 7 8 28 5 47 -5 29 0 38 30 67 89 86 173 235 198 355 20 92 19 242 -1 323 -42 169 -174 331 -334 409 -47 22 -112 48 -145 57 -86 23 -284 28 -365 10z m101 -41 c33 -35 32 -103 -3 -170 l-26 -49 -55 0 c-45 0 -60 -5 -81 -24 -23 -22 -29 -23 -50 -12 -47 26 -58 88 -27 156 50 107 183 162 242 99z m353 -15 c179 -76 311 -217 367 -392 20 -60 23 -93 23 -202 -1 -121 -3 -136 -33 -215 -17 -47 -39 -96 -49 -110 -9 -14 -23 -37 -31 -52 -8 -15 -42 -57 -76 -95 -61 -67 -62 -67 -110 -64 -27 1 -51 4 -53 6 -3 2 14 25 37 51 23 26 58 75 78 108 20 34 38 63 40 66 3 3 12 -4 20 -15 16 -20 16 -20 8 0 -15 42 -17 55 -6 55 6 0 11 -7 11 -16 0 -8 5 -12 11 -9 7 5 5 12 -5 24 -15 17 -15 19 30 160 3 10 7 11 18 2 12 -10 14 -8 9 11 -4 18 -2 20 6 8 5 -8 13 -11 17 -7 4 4 13 -1 20 -11 12 -16 13 -16 14 3 0 37 -12 63 -31 68 -22 6 -25 37 -8 70 9 18 9 20 -2 10 -15 -15 -33 -17 -25 -4 4 5 2 20 -3 33 -9 21 -10 20 -11 -12 -2 -34 -2 -34 -10 -8 -17 57 -74 155 -113 196 -23 24 -65 55 -94 69 -29 15 -50 30 -47 34 2 4 -6 5 -18 1 -17 -4 -20 -2 -15 11 39 103 5 216 -78 254 l-30 14 35 -7 c19 -3 66 -19 104 -35z m-96 4 c62 -39 82 -146 42 -228 -27 -56 -56 -81 -111 -96 -43 -11 -50 -10 -95 12 -34 16 -55 35 -66 59 -10 19 -18 29 -18 22 0 -49 80 -112 143 -112 41 0 95 26 128 61 26 28 32 30 59 21 16 -6 52 -26 80 -44 46 -30 49 -34 28 -40 -13 -3 -41 -7 -63 -7 -50 -2 -318 -48 -288 -50 13 0 78 8 145 18 68 11 151 22 185 26 l61 6 33 -47 c68 -100 91 -211 66 -330 -28 -130 -93 -256 -191 -368 l-34 -39 -243 11 c-134 7 -299 15 -367 19 l-123 6 -27 39 c-47 68 -55 77 -41 48 6 -14 22 -39 35 -56 19 -26 21 -34 10 -43 -15 -12 -42 -6 -67 16 -14 11 -14 20 -4 61 10 37 19 51 47 67 46 26 68 45 68 58 0 6 -10 1 -22 -10 -41 -36 -54 -37 -20 -1 35 37 72 121 72 166 0 20 3 23 9 12 12 -17 4 -60 -20 -117 l-18 -42 58 -54 c133 -122 270 -143 430 -64 104 52 218 186 263 310 11 31 21 57 22 57 0 0 19 -7 41 -15 22 -8 47 -14 55 -14 8 0 -8 9 -36 19 -29 10 -63 25 -76 34 -14 9 -61 23 -104 31 -43 9 -112 24 -153 36 -40 11 -76 18 -78 15 -3 -3 14 -10 37 -16 23 -6 40 -12 39 -14 -2 -1 -61 0 -131 2 -146 5 -138 -2 -117 105 10 47 16 57 40 67 15 7 36 21 46 32 25 28 24 99 -1 127 -20 22 -20 22 4 44 12 12 20 16 16 10 -4 -7 -2 -13 3 -13 6 0 11 17 11 38 1 73 58 157 125 180 35 12 80 6 113 -15z m-468 -13 c0 -5 -6 -13 -13 -17 -18 -12 -39 -57 -46 -99 -6 -36 -8 -38 -61 -48 -31 -7 -70 -22 -87 -34 -19 -14 -34 -18 -38 -12 -8 14 45 81 58 73 5 -3 7 -2 4 4 -3 5 10 25 30 44 20 19 33 28 29 22 -5 -9 -2 -11 8 -7 9 3 14 9 12 13 -2 3 2 11 9 18 11 10 15 10 18 0 4 -8 6 -7 6 3 1 9 13 23 29 32 31 20 42 22 42 8z m-51 -194 c5 -13 22 -32 36 -43 21 -15 28 -29 29 -61 2 -41 35 -92 60 -92 31 -1 36 -16 25 -76 -19 -108 4 -97 -208 -92 -121 4 -196 10 -214 18 -80 38 -99 186 -30 239 34 27 59 26 88 -4 27 -26 35 -22 9 6 -12 14 -13 22 -4 38 6 12 15 21 21 21 11 0 101 -45 178 -90 29 -18 50 -27 47 -21 -4 6 -52 36 -107 67 -69 38 -98 59 -91 66 13 13 110 47 135 48 10 0 22 -11 26 -24z m-444 -455 c28 -4 60 -12 72 -19 12 -7 42 -12 68 -12 34 0 44 -3 39 -12 -5 -9 -2 -9 9 1 13 10 20 11 30 2 8 -6 42 -12 77 -13 81 -4 88 -14 65 -93 -12 -44 -28 -71 -60 -102 -23 -24 -47 -43 -53 -43 -5 0 -18 12 -27 27 -14 21 -15 28 -5 31 21 7 67 61 81 93 6 16 8 37 4 46 -6 16 -8 16 -18 3 -7 -8 -24 -21 -39 -29 -25 -13 -27 -18 -21 -54 8 -51 -10 -63 -51 -34 -25 17 -45 22 -98 22 -62 0 -69 -2 -101 -33 l-35 -34 -22 24 c-48 49 -64 144 -39 217 11 30 14 32 43 26 17 -4 54 -11 81 -14z m157 -217 c15 -8 39 -35 54 -60 31 -52 29 -109 -4 -153 -92 -125 -282 -73 -282 77 0 124 120 194 232 136z m230 -316 c-30 -30 -5 -136 41 -172 l32 -26 -72 0 c-40 0 -73 -3 -73 -7 0 -5 66 -7 147 -5 l147 3 -19 -23 c-11 -13 -21 -25 -22 -27 -1 -2 -21 6 -45 17 -34 17 -52 19 -85 13 -50 -10 -114 -50 -124 -78 -2 -7 -5 39 -7 101 -3 124 4 154 44 191 27 25 60 37 36 13z m417 -28 c20 -10 44 -27 55 -39 18 -20 18 -21 -29 -68 -46 -46 -51 -48 -109 -49 -34 -1 -80 -5 -103 -9 l-42 -7 40 41 c21 23 39 51 39 62 0 11 4 29 10 39 7 13 6 21 -5 30 -8 7 -15 17 -15 23 0 15 118 -1 159 -23z m383 -8 c26 -26 48 -370 28 -461 -7 -34 -16 -61 -20 -61 -5 0 -6 -8 -3 -19 3 -12 -6 -29 -24 -47 -15 -15 -19 -21 -8 -13 18 13 17 11 -2 -14 -32 -41 -71 -69 -84 -61 -7 4 -9 3 -5 -4 12 -19 -74 -40 -204 -49 -65 -4 -212 16 -227 30 -2 2 1 16 6 30 6 14 11 64 13 111 2 91 3 92 56 77 20 -6 30 -6 27 0 -4 5 1 9 11 9 29 0 78 37 104 79 20 33 31 41 56 41 37 0 93 -18 115 -36 18 -16 53 -19 44 -4 -4 6 -27 21 -52 34 l-46 23 29 7 c39 10 112 44 119 56 9 15 -9 12 -62 -11 -86 -38 -192 -61 -178 -40 12 21 -19 104 -51 136 l-32 33 26 30 c34 38 149 122 168 122 8 0 14 3 14 8 0 9 172 3 182 -6z m-596 -3 c25 -7 48 -18 51 -25 14 -38 -32 -103 -88 -123 -40 -14 -64 13 -64 72 0 36 -3 42 -23 45 -25 4 -41 -23 -26 -43 5 -7 20 -27 33 -45 l24 -32 -24 7 c-37 11 -68 45 -81 86 -18 61 -9 69 77 69 42 0 97 -5 121 -11z m198 -172 c54 -31 78 -78 73 -145 -4 -56 -34 -99 -89 -128 -56 -29 -134 -10 -180 44 -109 130 48 314 196 229z m-256 -42 c18 -14 21 -22 15 -60 -8 -59 18 -127 60 -160 32 -24 32 -25 32 -117 0 -142 -36 -188 -145 -188 -90 0 -149 41 -189 130 -62 140 -23 327 82 390 39 24 114 26 145 5z m-253 -108 c-4 -12 -9 -61 -12 -110 -6 -93 6 -157 39 -213 23 -40 11 -46 -53 -28 -59 17 -123 85 -139 145 -23 84 13 196 61 192 13 -1 18 1 11 4 -23 9 19 31 61 31 36 1 38 -1 32 -21z" />
  </g>
</svg>
