<?xml version="1.0" encoding="UTF-8" standalone="no"?>
<svg
   xmlns:dc="http://purl.org/dc/elements/1.1/"
   xmlns:cc="http://creativecommons.org/ns#"
   xmlns:rdf="http://www.w3.org/1999/02/22-rdf-syntax-ns#"
   xmlns:svg="http://www.w3.org/2000/svg"
   xmlns="http://www.w3.org/2000/svg"
   xmlns:sodipodi="http://sodipodi.sourceforge.net/DTD/sodipodi-0.dtd"
   xmlns:inkscape="http://www.inkscape.org/namespaces/inkscape"
   inkscape:version="1.0 (4035a4fb49, 2020-05-01)"
   sodipodi:docname="snehc.svg"
   id="svg10"
   preserveAspectRatio="xMidYMid meet"
   viewBox="0 0 174.000000 290.000000"
   height="290.000000pt"
   width="174.000000pt"
   version="1.0">
  <defs
     id="defs14" />
  <sodipodi:namedview
     inkscape:current-layer="svg10"
     inkscape:window-maximized="1"
     inkscape:window-y="-9"
     inkscape:window-x="-9"
     inkscape:cy="193.33333"
     inkscape:cx="116"
     inkscape:zoom="2.1465517"
     showgrid="false"
     id="namedview12"
     inkscape:window-height="1001"
     inkscape:window-width="1920"
     inkscape:pageshadow="2"
     inkscape:pageopacity="0"
     guidetolerance="10"
     gridtolerance="10"
     objecttolerance="10"
     borderopacity="1"
     bordercolor="#666666"
     pagecolor="#ffffff" />
  <metadata
     id="metadata2">
Created by potrace 1.16, written by Peter Selinger 2001-2019
<rdf:RDF>
  <cc:Work
     rdf:about="">
    <dc:format>image/svg+xml</dc:format>
    <dc:type
       rdf:resource="http://purl.org/dc/dcmitype/StillImage" />
  </cc:Work>
</rdf:RDF>
</metadata>
  <g
     style="fill:#ff00ff"
     id="g8"
     stroke="none"
     fill="#000000"
     transform="translate(0.000000,290.000000) scale(0.100000,-0.100000)">
    <path
       style="fill:#ff00ff"
       id="path4"
       d="M692 2575 c-142 -33 -305 -131 -389 -234 -67 -83 -125 -214 -122 -275 1 -20 2 -20 6 -1 9 36 79 129 141 188 51 48 167 118 176 106 1 -2 9 -22 17 -44 8 -22 28 -49 44 -60 23 -15 29 -26 27 -48 -2 -19 5 -35 25 -55 15 -16 34 -31 41 -33 10 -3 10 -16 2 -57 -5 -29 -14 -124 -20 -210 -6 -86 -12 -157 -13 -158 -1 -1 -38 3 -82 8 -67 7 -84 13 -110 37 -35 33 -95 55 -131 48 -18 -3 -33 4 -55 25 -48 48 -35 97 36 136 16 9 17 11 4 12 -9 0 -31 -13 -48 -29 -40 -37 -41 -78 -4 -121 21 -26 24 -33 12 -41 -8 -5 -17 -9 -20 -9 -6 0 -30 82 -43 145 -3 15 -4 13 -5 -7 0 -14 7 -53 18 -87 17 -54 17 -62 3 -73 -8 -7 -24 -33 -35 -57 -21 -47 -18 -113 7 -146 11 -15 10 -28 -5 -79 -47 -154 -36 -209 52 -266 33 -21 79 -46 104 -57 l45 -18 0 -72 c0 -141 39 -317 87 -389 13 -21 12 -23 -41 -47 -70 -32 -93 -65 -76 -107 7 -16 27 -39 44 -50 42 -25 139 -50 191 -49 30 1 23 4 -29 10 -84 11 -168 48 -192 84 -24 37 -5 68 60 100 130 62 361 56 471 -13 20 -12 20 -12 0 -24 -42 -25 -65 -57 -65 -92 0 -40 -10 -45 -105 -56 -56 -7 -57 -7 -15 -9 25 0 62 4 83 10 35 9 41 8 72 -19 18 -17 60 -40 92 -53 50 -20 76 -23 193 -24 185 0 285 34 327 112 16 30 16 34 0 68 -9 19 -31 44 -49 55 -31 19 -32 21 -32 94 -1 71 0 75 23 81 99 25 143 143 85 228 -25 37 -25 39 -8 58 13 14 25 18 49 13 56 -10 88 52 47 89 -38 34 -82 9 -82 -47 0 -29 -14 -56 -31 -56 -3 0 -9 23 -12 50 -3 28 -22 97 -41 152 -25 73 -32 107 -25 119 5 10 9 25 9 33 0 8 25 53 57 98 102 150 143 268 143 410 0 313 -216 595 -530 693 -76 24 -293 29 -378 10z m353 -20 c301 -78 516 -336 541 -647 10 -129 -37 -283 -131 -421 -55 -82 -58 -84 -104 -92 -40 -7 -43 -6 -38 11 3 11 22 63 41 117 107 295 85 553 -58 700 -55 57 -102 87 -194 122 -69 28 -72 30 -72 62 0 81 -62 153 -131 153 -44 0 -84 -17 -113 -49 l-18 -20 -24 35 c-13 19 -24 37 -24 39 0 19 242 12 325 -10z m-351 -5 c42 -16 58 -60 49 -138 -9 -74 -8 -79 2 -105 5 -13 3 -16 -8 -11 -10 3 -13 12 -10 22 6 15 4 15 -14 0 -11 -10 -29 -18 -41 -18 -11 0 -33 -11 -49 -24 -22 -19 -31 -22 -50 -13 -27 12 -53 64 -53 105 0 69 50 154 104 178 38 16 39 16 70 4z m264 -26 c45 -30 74 -125 53 -178 -6 -17 -9 -16 -25 8 -9 15 -49 61 -88 102 -69 72 -70 74 -47 84 29 12 75 5 107 -16z m-82 -56 c49 -52 124 -148 124 -158 0 -22 -64 -80 -98 -90 -76 -21 -152 50 -152 142 0 51 20 110 47 140 19 21 35 14 79 -34z m-346 2 c-11 -21 -20 -51 -20 -65 0 -16 -7 -28 -17 -31 -89 -30 -188 -105 -256 -194 l-27 -35 20 50 c29 70 109 174 172 223 44 33 136 91 146 92 1 0 -7 -18 -18 -40z m618 -160 c75 -35 159 -112 196 -180 47 -87 60 -145 59 -270 0 -129 -25 -242 -85 -391 l-33 -84 -220 -3 c-223 -3 -395 7 -564 34 -61 9 -97 11 -105 5 -8 -7 -16 -4 -24 10 -11 16 -10 20 5 26 86 31 135 135 103 218 -10 26 -10 26 28 18 45 -9 267 -10 302 -1 22 6 27 2 44 -33 38 -84 148 -130 245 -105 59 15 88 38 107 83 17 39 18 128 3 173 -10 27 -9 34 3 41 31 17 128 102 128 111 0 6 -19 -7 -42 -29 -150 -137 -339 -215 -582 -238 l-69 -7 6 154 c3 84 11 180 17 213 10 55 14 61 38 63 38 3 75 33 87 71 7 22 14 30 25 26 41 -16 68 -15 110 7 36 18 50 34 70 76 23 49 27 52 55 47 17 -3 58 -19 93 -35z m59 -564 c7 -71 -10 -120 -55 -154 -31 -24 -44 -27 -107 -27 -61 0 -78 4 -112 27 -35 23 -92 94 -82 102 9 6 170 49 172 45 2 -2 11 -17 21 -33 24 -38 44 -20 23 20 l-15 28 67 37 c76 43 79 41 88 -45z m-802 5 c16 -9 40 -35 52 -57 91 -160 -122 -317 -249 -183 -49 52 -59 110 -29 173 43 88 140 117 226 67z m-183 -278 c10 -9 44 -22 75 -28 51 -10 59 -15 76 -48 18 -35 18 -44 6 -151 l-13 -113 -35 14 c-47 20 -143 81 -158 101 -18 22 -16 115 3 184 9 32 19 58 22 58 3 0 14 -8 24 -17z m374 -169 c19 -5 21 -9 12 -38 -24 -77 52 -151 128 -126 48 16 76 56 72 102 l-4 38 87 0 87 0 56 -51 c95 -87 133 -196 103 -300 -44 -148 -155 -236 -325 -259 -179 -24 -332 52 -400 198 -23 50 -27 70 -27 157 0 121 23 182 91 245 43 40 70 47 120 34z m797 -66 c24 -61 57 -190 57 -223 0 -12 -4 -14 -19 -5 -32 17 -101 12 -137 -11 l-33 -20 -29 64 c-27 59 -52 92 -52 69 0 -5 14 -40 31 -77 28 -63 30 -70 18 -114 -23 -91 15 -168 96 -195 33 -12 41 -20 47 -48 8 -34 1 -88 -10 -88 -4 1 -34 7 -67 15 -103 25 -279 16 -365 -18 -21 -9 -47 14 -55 46 -6 21 -3 28 11 32 11 3 47 20 82 37 209 102 257 362 96 522 -51 51 -47 55 54 57 37 1 92 4 122 9 30 4 71 8 91 9 36 1 37 0 62 -61z m30 -242 c75 -32 110 -122 73 -191 -20 -37 -81 -75 -121 -75 -74 0 -135 62 -135 138 0 57 25 97 75 122 47 24 65 25 108 6z m-162 -400 c41 -8 94 -23 116 -34 46 -24 93 -75 93 -101 0 -51 -90 -110 -198 -131 -90 -18 -252 -8 -324 19 -121 47 -154 120 -81 180 82 67 240 94 394 67z" />
    <path
       style="fill:#ff00ff"
       id="path6"
       d="M447 1032 c-8 -37 9 -145 28 -182 18 -35 79 -89 121 -106 88 -37 218 -23 282 31 43 36 74 114 70 178 -3 51 -3 51 -45 63 -53 16 -184 31 -334 40 l-116 7 -6 -31z m318 -3 c45 -5 101 -15 125 -22 42 -12 45 -15 48 -49 12 -146 -120 -250 -277 -219 -131 26 -201 111 -201 244 l0 69 113 -7 c61 -3 148 -11 192 -16z" />
  </g>
</svg>
