<?xml version="1.0" encoding="UTF-8" standalone="no"?>
<svg
   xmlns:dc="http://purl.org/dc/elements/1.1/"
   xmlns:cc="http://creativecommons.org/ns#"
   xmlns:rdf="http://www.w3.org/1999/02/22-rdf-syntax-ns#"
   xmlns:svg="http://www.w3.org/2000/svg"
   xmlns="http://www.w3.org/2000/svg"
   xmlns:sodipodi="http://sodipodi.sourceforge.net/DTD/sodipodi-0.dtd"
   xmlns:inkscape="http://www.inkscape.org/namespaces/inkscape"
   inkscape:version="1.0 (4035a4fb49, 2020-05-01)"
   sodipodi:docname="snehv.svg"
   id="svg8"
   preserveAspectRatio="xMidYMid meet"
   viewBox="0 0 222.000000 227.000000"
   height="227.000000pt"
   width="222.000000pt"
   version="1.0">
  <defs
     id="defs12" />
  <sodipodi:namedview
     inkscape:current-layer="svg8"
     inkscape:window-maximized="1"
     inkscape:window-y="-9"
     inkscape:window-x="-9"
     inkscape:cy="151.33333"
     inkscape:cx="148"
     inkscape:zoom="2.7422907"
     showgrid="false"
     id="namedview10"
     inkscape:window-height="1001"
     inkscape:window-width="1920"
     inkscape:pageshadow="2"
     inkscape:pageopacity="0"
     guidetolerance="10"
     gridtolerance="10"
     objecttolerance="10"
     borderopacity="1"
     bordercolor="#666666"
     pagecolor="#ffffff" />
  <metadata
     id="metadata2">
Created by potrace 1.16, written by Peter Selinger 2001-2019
<rdf:RDF>
  <cc:Work
     rdf:about="">
    <dc:format>image/svg+xml</dc:format>
    <dc:type
       rdf:resource="http://purl.org/dc/dcmitype/StillImage" />
  </cc:Work>
</rdf:RDF>
</metadata>
  <g
     style="fill:#ff0000"
     id="g6"
     stroke="none"
     fill="#000000"
     transform="translate(0.000000,227.000000) scale(0.100000,-0.100000)">
    <path
       style="fill:#ff0000"
       id="path4"
       d="M798 2230 c-26 -26 -29 -35 -23 -68 6 -35 3 -42 -34 -79 -21 -23 -64 -57 -95 -77 -30 -19 -74 -52 -96 -73 -90 -80 -197 -266 -184 -318 7 -29 8 -29 36 -14 21 12 21 11 -1 -22 -12 -19 -31 -53 -42 -76 -11 -23 -24 -45 -29 -48 -14 -9 -12 -36 5 -69 19 -35 20 -125 3 -127 -68 -7 -118 42 -118 116 0 45 36 85 78 85 31 0 43 15 41 53 -1 16 -3 14 -8 -8 -5 -23 -13 -31 -41 -36 -47 -10 -80 -50 -80 -97 0 -42 29 -95 59 -112 12 -6 21 -19 21 -29 0 -29 48 -161 77 -210 36 -62 135 -165 204 -212 69 -47 121 -68 174 -72 35 -2 42 -6 56 -37 l16 -35 -42 -37 c-23 -20 -46 -52 -52 -70 l-9 -33 -17 31 c-22 43 -73 84 -103 84 -98 0 -134 -113 -75 -236 17 -36 45 -75 70 -96 l41 -35 -47 -7 c-27 -3 -154 -9 -283 -12 -184 -5 -239 -10 -252 -21 -49 -43 -48 -145 3 -196 29 -28 32 -29 97 -22 189 20 540 116 835 228 57 22 69 24 73 12 8 -20 102 -72 145 -80 46 -9 112 9 170 46 25 16 57 29 70 29 35 0 86 34 105 72 18 34 56 74 96 100 13 8 59 18 103 22 44 4 107 14 140 22 79 20 216 84 213 100 -2 6 11 25 27 40 l30 29 -31 3 -31 3 39 42 c22 23 46 54 54 69 l14 27 -37 -22 -38 -22 29 38 c29 38 55 98 56 129 0 16 -3 15 -35 -3 -53 -32 -76 -20 -29 14 l39 29 -32 -4 c-18 -3 -33 -1 -33 4 0 5 19 29 43 55 l42 46 -35 -8 c-19 -4 -45 -9 -57 -12 -25 -6 -30 6 -12 24 9 9 6 11 -12 7 -22 -5 -21 -3 10 25 l33 29 -43 -9 c-100 -23 -216 -94 -359 -221 -51 -44 -93 -78 -94 -76 -1 1 -7 21 -14 43 -11 37 -2 70 12 46 10 -16 52 -13 66 4 20 24 -3 65 -36 65 -19 0 -28 -7 -37 -30 -6 -17 -14 -30 -18 -30 -13 0 -177 178 -223 244 l-49 69 -7 116 c-8 136 -37 232 -94 311 -30 42 -36 58 -36 103 -1 137 -112 247 -251 247 -64 0 -71 6 -63 59 5 32 16 54 35 72 16 15 29 36 29 48 0 83 -92 120 -152 61z m-186 -320 l-27 -49 23 -16 c12 -9 22 -21 22 -26 0 -11 -6 -13 -65 -28 -33 -9 -45 -19 -68 -60 -36 -65 -43 -68 -39 -19 4 39 4 40 -19 27 -18 -9 -14 -1 17 37 23 27 53 71 69 97 15 27 31 44 34 38 5 -7 20 0 42 19 18 16 35 29 36 30 2 0 -9 -22 -25 -50z m226 -217 c39 -20 72 -38 72 -42 0 -3 -17 -15 -38 -26 l-37 -20 -24 23 c-71 66 -158 23 -154 -76 l2 -44 -27 25 c-37 34 -66 41 -100 23 -36 -18 -55 -61 -51 -114 3 -34 -1 -44 -27 -65 -24 -21 -34 -24 -44 -14 -10 10 -10 8 -1 -10 7 -14 8 -24 1 -28 -6 -3 -19 -23 -31 -43 l-20 -37 6 79 c3 44 12 90 18 103 7 13 84 88 172 167 181 163 163 157 283 99z m-64 -57 c60 -25 96 -112 72 -171 -39 -92 -163 -31 -174 86 -4 41 -1 51 21 73 30 30 36 31 81 12z m331 -10 l38 -16 -41 -33 c-39 -31 -92 -89 -92 -100 0 -3 28 23 63 59 35 35 68 64 74 64 16 0 85 -59 126 -109 41 -51 53 -108 45 -222 -11 -147 -117 -289 -271 -363 -89 -43 -141 -55 -235 -56 -86 0 -170 25 -247 75 -67 42 -72 52 -36 60 20 4 42 0 68 -13 115 -59 278 -73 386 -32 163 61 254 205 245 385 -7 133 -73 242 -126 209 -9 -6 -33 -40 -52 -75 -53 -95 -95 -154 -168 -230 -74 -79 -76 -79 -117 6 -26 51 -26 53 -9 89 17 35 17 37 -3 64 -11 15 -31 28 -45 30 -21 3 -27 10 -33 40 -4 20 -9 32 -12 26 -2 -6 -14 -9 -27 -7 -16 3 -25 -1 -30 -13 -7 -18 18 -64 35 -64 6 0 6 -7 -1 -21 -7 -11 -9 -27 -6 -34 5 -14 -14 -25 -46 -25 -28 0 -74 50 -88 97 -31 103 54 174 126 106 16 -15 31 -28 34 -28 3 0 21 -17 41 -37 63 -64 126 -61 155 8 14 33 14 42 1 81 l-15 45 32 19 c17 11 42 22 56 25 14 3 30 8 35 10 19 7 103 -5 140 -20z m-576 -277 c37 -37 45 -41 79 -37 24 4 42 1 50 -8 7 -8 25 -14 41 -14 24 0 32 -9 64 -72 l37 -72 -27 -22 c-50 -41 -161 -103 -212 -120 -61 -20 -93 -13 -132 26 -31 30 -41 92 -17 106 6 4 43 7 82 7 l71 0 -70 6 c-61 5 -67 8 -50 18 11 7 14 13 7 13 -7 0 -24 -11 -37 -24 -28 -28 -30 -26 -40 26 -9 46 18 109 70 167 21 22 39 41 40 41 1 0 21 -19 44 -41z m685 -96 c-19 -130 -90 -231 -197 -282 -34 -16 -75 -31 -90 -35 l-28 -7 7 48 c15 106 68 205 138 258 40 30 120 64 154 65 22 0 23 -2 16 -47z m-860 -35 c8 -32 7 -66 -1 -71 -5 -2 -2 -2 4 -1 7 2 15 -9 19 -24 14 -65 31 -97 71 -126 22 -17 63 -48 89 -68 27 -21 74 -47 104 -58 78 -30 78 -30 107 -79 l26 -44 -42 6 c-68 9 -149 57 -238 141 -92 87 -139 160 -172 270 -12 37 -21 70 -21 72 0 2 11 4 24 4 16 0 26 -7 30 -22z m1708 -161 c-23 -24 -32 -51 -10 -29 19 19 30 14 17 -10 -9 -18 -9 -20 4 -15 9 3 32 9 53 13 l37 7 -30 -44 c-48 -72 -48 -72 -22 -64 l24 7 -24 -26 -24 -26 27 0 c15 0 41 7 57 16 30 15 31 15 24 -8 -16 -51 -39 -89 -71 -118 -30 -26 -32 -30 -14 -30 12 0 30 5 41 11 18 9 19 8 10 -9 -32 -61 -205 -182 -278 -196 -41 -7 -41 -2 -3 31 36 30 33 42 -4 17 -15 -9 -29 -14 -32 -11 -3 3 -34 -8 -69 -24 -72 -32 -75 -33 -75 -19 0 5 18 19 40 30 49 25 53 36 5 13 l-35 -17 -45 50 c-24 27 -42 56 -40 64 2 8 7 36 11 62 6 43 14 55 80 118 41 39 102 91 137 117 63 46 216 127 225 118 3 -3 -4 -15 -16 -28z m-802 -76 c8 -16 1 -33 -35 -91 -41 -68 -175 -357 -175 -380 0 -9 -46 -4 -58 6 -2 1 6 38 17 81 33 119 123 293 185 353 28 28 52 50 53 50 1 0 7 -9 13 -19z m-186 -188 c-30 -60 -54 -113 -54 -120 0 -17 -27 -29 -82 -37 -27 -4 -48 -11 -48 -15 0 -4 19 -25 43 -46 l42 -40 -38 41 -38 41 50 10 c57 11 58 11 39 -52 -6 -22 -11 -44 -10 -48 5 -18 -59 35 -102 86 -57 65 -76 104 -76 157 0 39 2 42 23 36 12 -3 28 -6 36 -6 9 0 10 -4 3 -12 -7 -9 -3 -24 14 -50 42 -65 113 -63 149 4 19 36 19 38 2 67 l-17 30 52 29 c29 16 56 30 59 31 4 0 -17 -47 -47 -106z m378 38 c29 -26 33 -35 32 -79 -1 -27 -11 -70 -22 -95 -11 -25 -19 -47 -17 -49 2 -2 -28 -3 -66 -3 -38 0 -69 4 -69 8 0 14 21 50 52 90 16 20 25 37 19 37 -5 0 -13 -5 -17 -12 -8 -13 -22 14 -23 44 -1 18 55 88 70 88 5 0 23 -13 41 -29z m-136 -172 c-14 -29 -26 -58 -26 -64 0 -6 -13 -24 -28 -38 -25 -24 -32 -26 -56 -17 -20 7 -34 7 -49 -2 -25 -13 -30 -20 58 91 33 40 61 68 63 62 8 -24 -21 -82 -56 -111 -20 -16 -32 -30 -25 -30 34 0 103 117 91 155 -1 6 6 23 17 39 l20 30 9 -31 c7 -26 3 -42 -18 -84z m-476 -87 c-12 -23 -25 -71 -28 -108 l-7 -68 -37 55 c-21 30 -38 63 -38 74 0 32 32 83 65 105 29 19 30 19 48 1 18 -17 18 -19 -3 -59z m-186 25 c17 -18 46 -60 64 -93 18 -33 57 -87 87 -121 l55 -61 -48 -12 c-102 -26 -153 -30 -182 -15 -37 19 -82 72 -110 129 -31 66 -25 149 14 183 40 34 81 30 120 -10z m802 -16 c73 -33 112 -110 100 -194 -13 -83 -68 -127 -160 -127 -46 0 -61 5 -98 33 -55 41 -93 114 -84 161 10 51 46 99 96 124 54 27 92 28 146 3z m-401 -103 c14 -6 28 -23 32 -36 13 -53 -79 -92 -140 -61 -28 15 -37 28 -37 56 0 45 84 69 145 41z" />
  </g>
</svg>
