<?xml version="1.0" encoding="utf-8"?>
<!-- Generator: Adobe Illustrator 23.0.6, SVG Export Plug-In . SVG Version: 6.00 Build 0)  -->
<svg version="1.1"
	 id="svg14" inkscape:version="1.0 (4035a4fb49, 2020-05-01)" sodipodi:docname="sneh(5).svg" xmlns:cc="http://creativecommons.org/ns#" xmlns:dc="http://purl.org/dc/elements/1.1/" xmlns:inkscape="http://www.inkscape.org/namespaces/inkscape" xmlns:rdf="http://www.w3.org/1999/02/22-rdf-syntax-ns#" xmlns:sodipodi="http://sodipodi.sourceforge.net/DTD/sodipodi-0.dtd" xmlns:svg="http://www.w3.org/2000/svg"
	 xmlns="http://www.w3.org/2000/svg" xmlns:xlink="http://www.w3.org/1999/xlink" x="0px" y="0px" viewBox="0 0 1886 1084"
	 style="enable-background:new 0 0 1886 1084;" xml:space="preserve">
<style type="text/css">
	.st0{fill:#FF0000;}
</style>
<sodipodi:namedview  bordercolor="#666666" borderopacity="1" gridtolerance="10" guidetolerance="10" id="namedview16" inkscape:current-layer="g12" inkscape:cx="1257.3333" inkscape:cy="722.66667" inkscape:pageopacity="0" inkscape:pageshadow="2" inkscape:window-height="1001" inkscape:window-maximized="1" inkscape:window-width="1920" inkscape:window-x="-9" inkscape:window-y="-9" inkscape:zoom="0.48038176" objecttolerance="10" pagecolor="#ffffff" showgrid="false">
	</sodipodi:namedview>
<g id="g12" transform="translate(0.000000,1084.000000) scale(0.100000,-0.100000)">
	<path id="path4" class="st0" d="M2985,8238.6c-346-89.5-645-426.2-802-900.5c-92-280.3-123-497.5-123-857.3
		c1-376.4,39-621.9,142-903.8c178-487.5,422-782.7,1053-1266.9c324-248.7,511-447.7,690-734.6c112-177.4,208-396.3,246-553.9
		c47-200.7,35-573.8-26-824.2c-41-165.8-129-376.4-217-519.1c-144-233.8-279-363.2-478-457.7c-97-46.4-118-51.4-270-53.1
		c-132-1.7-180,5-240,29.8c-150,63-309,200.7-462,401.3c-99,127.7-295,457.7-396,666.6c-46,92.9-85,169.1-88,169.1
		c-15,0-154-210.6-150-227.2c12-48.1,136-341.6,207-485.9c223-456,500-754.5,829-890.5c95-39.8,124-43.1,310-44.8
		c194-1.7,210,0,310,44.8c438,194,794,759.5,902,1431.1c20,129.3,23,185.7,23,446.1c0,383.1-21,510.8-128,794.3
		c-164,436.1-383,703.1-1006,1228.8c-218,184.1-436,378.1-486,431.2c-263,283.6-419,562.2-497,888.9c-33,137.6-33,142.6-32,404.6
		c0,245.4,2,276.9,29,422.9c89,479.3,291,797.6,600,941.9c79,38.1,109,43.1,255,43.1c184,1.7,263-24.9,408-134.3
		c221-165.8,446-520.7,576-907.1c20-59.7,39-109.4,42-109.4c10,0,194,174.1,194,184.1c0,18.2-115,310.1-164,412.9
		c-231,490.9-471,774.4-761,897.1C3383,8245.2,3088,8263.5,2985,8238.6z"/>
	<path id="path6" class="st0" d="M13528,5358.1l-3-2646.7l-325-396.3c-179-217.2-331-406.3-338-417.9c-12-18.2-4-46.4,49-165.8
		c35-79.6,68-141,74-136c7,3.3,132,152.6,278,331.7l267,323.4v-603.6v-605.3h115h115v744.6v746.2l420,507.4
		c231,278.6,422,514.1,425,522.4c8,23.2-118,298.5-133,290.2c-6-3.3-164-192.4-350-419.6c-185-225.5-343-416.2-349-422.9
		c-10-11.6-13,222.2-13,1147.6V5320h845h845V3180.8V1041.5h115h115V4524v3482.5h-115h-115V6845.6V5684.8h-845h-845v1160.8v1160.8
		h-115h-115L13528,5358.1z"/>
	<path id="path8" class="st0" d="M5490,7368c0-101.2,3-124.4,15-124.4c9,0,52-23.2,97-51.4c113-73,158-145.9,189-301.8l24-119.4
		V4250.4c0-2368.1-1-2525.6-18-2613.5c-34-179.1-92-265.3-226-331.7l-81-39.8v-111.1v-112.8h520h520V1156v114.4l-32,11.6
		c-57,21.6-162,107.8-197,162.5c-40,64.7-67,160.9-82,298.5c-7,66.3-14,684.9-20,1752.8c-4,907.1-11,1774.4-15,1928.6
		c-5,197.3-4,276.9,4,276.9c6,0,45-109.4,86-243.8c114-371.5,192-598.6,886-2583.6l642-1832.4h453h454l4,2824.1
		c3,2510.7,5,2834.1,20,2931.9c33,233.8,86,330,222,406.3l85,48.1v119.4v121.1h-515h-515V7373v-121.1l93-48.1
		c78-39.8,99-58,138-124.4c83-136,81-104.5,90-1336.6c9-1250.4,28-2636.7,36-2691.4c5-34.8,2-38.1-19-33.2c-22,5-43,61.4-160,444.4
		c-199,651.7-298,941.9-860,2553.8l-513,1467.6l-663,5l-662,3.3V7368z M7492,4515.7l897-2570.4v-252.1l1-253.7h-189h-189
		l-933,2674.9l-934,2673.2l-3,154.2l-3,152.6l228-3.3l228-5L7492,4515.7z"/>
	<path id="path10" class="st0" d="M9910,4731.3V2467.7h880h880v306.8v306.8h-675h-675v713.1v713.1h625h625v306.8V5121h-625h-625
		v630.2v630.2h655h655v306.8v306.8h-860h-860V4731.3z"/>
</g>
<g id="g12_1_" transform="translate(0.000000,1084.000000) scale(0.100000,-0.100000)">
	<path id="path4_1_" class="st0" d="M3010,7944.6c-346-89.5-645-426.2-802-900.5c-92-280.3-123-497.5-123-857.3
		c1-376.4,39-621.9,142-903.8c178-487.5,422-782.7,1053-1266.9c324-248.7,511-447.7,690-734.6c112-177.4,208-396.3,246-553.9
		c47-200.7,35-573.8-26-824.2c-41-165.8-129-376.4-217-519.1c-144-233.8-279-363.2-478-457.7c-97-46.4-118-51.4-270-53.1
		c-132-1.7-180,5-240,29.8c-150,63-309,200.7-462,401.3c-99,127.7-295,457.7-396,666.6c-46,92.9-85,169.1-88,169.1
		c-15,0-154-210.6-150-227.2c12-48.1,136-341.6,207-485.9c223-456,500-754.5,829-890.5c95-39.8,124-43.1,310-44.8
		c194-1.7,210,0,310,44.8c438,194,794,759.5,902,1431.1c20,129.3,23,185.7,23,446.1c0,383.1-21,510.8-128,794.3
		c-164,436.1-383,703.1-1006,1228.8c-218,184.1-436,378.1-486,431.2c-263,283.6-419,562.2-497,888.9c-33,137.6-33,142.6-32,404.6
		c0,245.4,2,276.9,29,422.9c89,479.3,291,797.6,600,941.9c79,38.1,109,43.1,255,43.1c184,1.7,263-24.9,408-134.3
		c221-165.8,446-520.7,576-907.1c20-59.7,39-109.4,42-109.4c10,0,194,174.1,194,184.1c0,18.2-115,310.1-164,412.9
		c-231,490.9-471,774.4-761,897.1C3408,7951.2,3113,7969.5,3010,7944.6z"/>
	<path id="path6_1_" class="st0" d="M13553,5064.1l-3-2646.7l-325-396.3c-179-217.2-331-406.3-338-417.9c-12-18.2-4-46.4,49-165.8
		c35-79.6,68-141,74-136c7,3.3,132,152.6,278,331.7l267,323.4v-603.6V747.5h115h115v744.6v746.2l420,507.4
		c231,278.6,422,514.1,425,522.4c8,23.2-118,298.5-133,290.2c-6-3.3-164-192.4-350-419.6c-185-225.5-343-416.2-349-422.9
		c-10-11.6-13,222.2-13,1147.6V5026h845h845V2886.8V747.5h115h115V4230v3482.5h-115h-115V6551.6V5390.8h-845h-845v1160.8v1160.8
		h-115h-115L13553,5064.1z"/>
	<path id="path8_1_" class="st0" d="M5515,7074c0-101.2,3-124.4,15-124.4c9,0,52-23.2,97-51.4c113-73,158-145.9,189-301.8l24-119.4
		V3956.4c0-2368.1-1-2525.6-18-2613.5c-34-179.1-92-265.3-226-331.7l-81-39.8V860.3V747.5h520h520V862v114.4l-32,11.6
		c-57,21.6-162,107.8-197,162.5c-40,64.7-67,160.9-82,298.5c-7,66.3-14,684.9-20,1752.8c-4,907.1-11,1774.4-15,1928.6
		c-5,197.3-4,276.9,4,276.9c6,0,45-109.4,86-243.8c114-371.5,192-598.6,886-2583.6l642-1832.4h453h454l4,2824.1
		c3,2510.7,5,2834.1,20,2931.9c33,233.8,86,330,222,406.3l85,48.1v119.4v121.1h-515h-515V7079v-121.1l93-48.1
		c78-39.8,99-58,138-124.4c83-136,81-104.5,90-1336.6c9-1250.4,28-2636.7,36-2691.4c5-34.8,2-38.1-19-33.2c-22,5-43,61.4-160,444.4
		c-199,651.7-298,941.9-860,2553.8l-513,1467.6l-663,5l-662,3.3V7074z M7517,4221.7l897-2570.4v-252.1l1-253.7h-189h-189
		l-933,2674.9l-934,2673.2l-3,154.2l-3,152.6l228-3.3l228-5L7517,4221.7z"/>
	<path id="path10_1_" class="st0" d="M9935,4437.3V2173.7h880h880v306.8v306.8h-675h-675v713.1v713.1h625h625v306.8V4827h-625h-625
		v630.2v630.2h655h655v306.8v306.8h-860h-860V4437.3z"/>
</g>
<g id="g12_2_" transform="translate(0.000000,1084.000000) scale(0.100000,-0.100000)">
	<path id="path4_2_" class="st0" d="M3010,7944.6c-346-89.5-645-426.2-802-900.5c-92-280.3-123-497.5-123-857.3
		c1-376.4,39-621.9,142-903.8c178-487.5,422-782.7,1053-1266.9c324-248.7,511-447.7,690-734.6c112-177.4,208-396.3,246-553.9
		c47-200.7,35-573.8-26-824.2c-41-165.8-129-376.4-217-519.1c-144-233.8-279-363.2-478-457.7c-97-46.4-118-51.4-270-53.1
		c-132-1.7-180,5-240,29.8c-150,63-309,200.7-462,401.3c-99,127.7-295,457.7-396,666.6c-46,92.9-85,169.1-88,169.1
		c-15,0-154-210.6-150-227.2c12-48.1,136-341.6,207-485.9c223-456,500-754.5,829-890.5c95-39.8,124-43.1,310-44.8
		c194-1.7,210,0,310,44.8c438,194,794,759.5,902,1431.1c20,129.3,23,185.7,23,446.1c0,383.1-21,510.8-128,794.3
		c-164,436.1-383,703.1-1006,1228.8c-218,184.1-436,378.1-486,431.2c-263,283.6-419,562.2-497,888.9c-33,137.6-33,142.6-32,404.6
		c0,245.4,2,276.9,29,422.9c89,479.3,291,797.6,600,941.9c79,38.1,109,43.1,255,43.1c184,1.7,263-24.9,408-134.3
		c221-165.8,446-520.7,576-907.1c20-59.7,39-109.4,42-109.4c10,0,194,174.1,194,184.1c0,18.2-115,310.1-164,412.9
		c-231,490.9-471,774.4-761,897.1C3408,7951.2,3113,7969.5,3010,7944.6z"/>
	<path id="path6_2_" class="st0" d="M13553,5064.1l-3-2646.7l-325-396.3c-179-217.2-331-406.3-338-417.9c-12-18.2-4-46.4,49-165.8
		c35-79.6,68-141,74-136c7,3.3,132,152.6,278,331.7l267,323.4v-603.6V747.5h115h115v744.6v746.2l420,507.4
		c231,278.6,422,514.1,425,522.4c8,23.2-118,298.5-133,290.2c-6-3.3-164-192.4-350-419.6c-185-225.5-343-416.2-349-422.9
		c-10-11.6-13,222.2-13,1147.6V5026h845h845V2886.8V747.5h115h115V4230v3482.5h-115h-115V6551.6V5390.8h-845h-845v1160.8v1160.8
		h-115h-115L13553,5064.1z"/>
	<path id="path8_2_" class="st0" d="M5515,7074c0-101.2,3-124.4,15-124.4c9,0,52-23.2,97-51.4c113-73,158-145.9,189-301.8l24-119.4
		V3956.4c0-2368.1-1-2525.6-18-2613.5c-34-179.1-92-265.3-226-331.7l-81-39.8V860.3V747.5h520h520V862v114.4l-32,11.6
		c-57,21.6-162,107.8-197,162.5c-40,64.7-67,160.9-82,298.5c-7,66.3-14,684.9-20,1752.8c-4,907.1-11,1774.4-15,1928.6
		c-5,197.3-4,276.9,4,276.9c6,0,45-109.4,86-243.8c114-371.5,192-598.6,886-2583.6l642-1832.4h453h454l4,2824.1
		c3,2510.7,5,2834.1,20,2931.9c33,233.8,86,330,222,406.3l85,48.1v119.4v121.1h-515h-515V7079v-121.1l93-48.1
		c78-39.8,99-58,138-124.4c83-136,81-104.5,90-1336.6c9-1250.4,28-2636.7,36-2691.4c5-34.8,2-38.1-19-33.2c-22,5-43,61.4-160,444.4
		c-199,651.7-298,941.9-860,2553.8l-513,1467.6l-663,5l-662,3.3V7074z M7517,4221.7l897-2570.4v-252.1l1-253.7h-189h-189
		l-933,2674.9l-934,2673.2l-3,154.2l-3,152.6l228-3.3l228-5L7517,4221.7z"/>
	<path id="path10_2_" class="st0" d="M9935,4437.3V2173.7h880h880v306.8v306.8h-675h-675v713.1v713.1h625h625v306.8V4827h-625h-625
		v630.2v630.2h655h655v306.8v306.8h-860h-860V4437.3z"/>
</g>
<g id="g12_3_" transform="translate(0.000000,1084.000000) scale(0.100000,-0.100000)">
	<path id="path4_3_" class="st0" d="M3010,7944.6c-346-89.5-645-426.2-802-900.5c-92-280.3-123-497.5-123-857.3
		c1-376.4,39-621.9,142-903.8c178-487.5,422-782.7,1053-1266.9c324-248.7,511-447.7,690-734.6c112-177.4,208-396.3,246-553.9
		c47-200.7,35-573.8-26-824.2c-41-165.8-129-376.4-217-519.1c-144-233.8-279-363.2-478-457.7c-97-46.4-118-51.4-270-53.1
		c-132-1.7-180,5-240,29.8c-150,63-309,200.7-462,401.3c-99,127.7-295,457.7-396,666.6c-46,92.9-85,169.1-88,169.1
		c-15,0-154-210.6-150-227.2c12-48.1,136-341.6,207-485.9c223-456,500-754.5,829-890.5c95-39.8,124-43.1,310-44.8
		c194-1.7,210,0,310,44.8c438,194,794,759.5,902,1431.1c20,129.3,23,185.7,23,446.1c0,383.1-21,510.8-128,794.3
		c-164,436.1-383,703.1-1006,1228.8c-218,184.1-436,378.1-486,431.2c-263,283.6-419,562.2-497,888.9c-33,137.6-33,142.6-32,404.6
		c0,245.4,2,276.9,29,422.9c89,479.3,291,797.6,600,941.9c79,38.1,109,43.1,255,43.1c184,1.7,263-24.9,408-134.3
		c221-165.8,446-520.7,576-907.1c20-59.7,39-109.4,42-109.4c10,0,194,174.1,194,184.1c0,18.2-115,310.1-164,412.9
		c-231,490.9-471,774.4-761,897.1C3408,7951.2,3113,7969.5,3010,7944.6z"/>
	<path id="path6_3_" class="st0" d="M13553,5064.1l-3-2646.7l-325-396.3c-179-217.2-331-406.3-338-417.9c-12-18.2-4-46.4,49-165.8
		c35-79.6,68-141,74-136c7,3.3,132,152.6,278,331.7l267,323.4v-603.6V747.5h115h115v744.6v746.2l420,507.4
		c231,278.6,422,514.1,425,522.4c8,23.2-118,298.5-133,290.2c-6-3.3-164-192.4-350-419.6c-185-225.5-343-416.2-349-422.9
		c-10-11.6-13,222.2-13,1147.6V5026h845h845V2886.8V747.5h115h115V4230v3482.5h-115h-115V6551.6V5390.8h-845h-845v1160.8v1160.8
		h-115h-115L13553,5064.1z"/>
	<path id="path8_3_" class="st0" d="M5515,7074c0-101.2,3-124.4,15-124.4c9,0,52-23.2,97-51.4c113-73,158-145.9,189-301.8l24-119.4
		V3956.4c0-2368.1-1-2525.6-18-2613.5c-34-179.1-92-265.3-226-331.7l-81-39.8V860.3V747.5h520h520V862v114.4l-32,11.6
		c-57,21.6-162,107.8-197,162.5c-40,64.7-67,160.9-82,298.5c-7,66.3-14,684.9-20,1752.8c-4,907.1-11,1774.4-15,1928.6
		c-5,197.3-4,276.9,4,276.9c6,0,45-109.4,86-243.8c114-371.5,192-598.6,886-2583.6l642-1832.4h453h454l4,2824.1
		c3,2510.7,5,2834.1,20,2931.9c33,233.8,86,330,222,406.3l85,48.1v119.4v121.1h-515h-515V7079v-121.1l93-48.1
		c78-39.8,99-58,138-124.4c83-136,81-104.5,90-1336.6c9-1250.4,28-2636.7,36-2691.4c5-34.8,2-38.1-19-33.2c-22,5-43,61.4-160,444.4
		c-199,651.7-298,941.9-860,2553.8l-513,1467.6l-663,5l-662,3.3V7074z M7517,4221.7l897-2570.4v-252.1l1-253.7h-189h-189
		l-933,2674.9l-934,2673.2l-3,154.2l-3,152.6l228-3.3l228-5L7517,4221.7z"/>
	<path id="path10_3_" class="st0" d="M9935,4437.3V2173.7h880h880v306.8v306.8h-675h-675v713.1v713.1h625h625v306.8V4827h-625h-625
		v630.2v630.2h655h655v306.8v306.8h-860h-860V4437.3z"/>
</g>
<g id="g12_4_" transform="translate(0.000000,1084.000000) scale(0.100000,-0.100000)">
	<path id="path4_4_" class="st0" d="M3010,7944.6c-346-89.5-645-426.2-802-900.5c-92-280.3-123-497.5-123-857.3
		c1-376.4,39-621.9,142-903.8c178-487.5,422-782.7,1053-1266.9c324-248.7,511-447.7,690-734.6c112-177.4,208-396.3,246-553.9
		c47-200.7,35-573.8-26-824.2c-41-165.8-129-376.4-217-519.1c-144-233.8-279-363.2-478-457.7c-97-46.4-118-51.4-270-53.1
		c-132-1.7-180,5-240,29.8c-150,63-309,200.7-462,401.3c-99,127.7-295,457.7-396,666.6c-46,92.9-85,169.1-88,169.1
		c-15,0-154-210.6-150-227.2c12-48.1,136-341.6,207-485.9c223-456,500-754.5,829-890.5c95-39.8,124-43.1,310-44.8
		c194-1.7,210,0,310,44.8c438,194,794,759.5,902,1431.1c20,129.3,23,185.7,23,446.1c0,383.1-21,510.8-128,794.3
		c-164,436.1-383,703.1-1006,1228.8c-218,184.1-436,378.1-486,431.2c-263,283.6-419,562.2-497,888.9c-33,137.6-33,142.6-32,404.6
		c0,245.4,2,276.9,29,422.9c89,479.3,291,797.6,600,941.9c79,38.1,109,43.1,255,43.1c184,1.7,263-24.9,408-134.3
		c221-165.8,446-520.7,576-907.1c20-59.7,39-109.4,42-109.4c10,0,194,174.1,194,184.1c0,18.2-115,310.1-164,412.9
		c-231,490.9-471,774.4-761,897.1C3408,7951.2,3113,7969.5,3010,7944.6z"/>
	<path id="path6_4_" class="st0" d="M13553,5064.1l-3-2646.7l-325-396.3c-179-217.2-331-406.3-338-417.9c-12-18.2-4-46.4,49-165.8
		c35-79.6,68-141,74-136c7,3.3,132,152.6,278,331.7l267,323.4v-603.6V747.5h115h115v744.6v746.2l420,507.4
		c231,278.6,422,514.1,425,522.4c8,23.2-118,298.5-133,290.2c-6-3.3-164-192.4-350-419.6c-185-225.5-343-416.2-349-422.9
		c-10-11.6-13,222.2-13,1147.6V5026h845h845V2886.8V747.5h115h115V4230v3482.5h-115h-115V6551.6V5390.8h-845h-845v1160.8v1160.8
		h-115h-115L13553,5064.1z"/>
	<path id="path8_4_" class="st0" d="M5515,7074c0-101.2,3-124.4,15-124.4c9,0,52-23.2,97-51.4c113-73,158-145.9,189-301.8l24-119.4
		V3956.4c0-2368.1-1-2525.6-18-2613.5c-34-179.1-92-265.3-226-331.7l-81-39.8V860.3V747.5h520h520V862v114.4l-32,11.6
		c-57,21.6-162,107.8-197,162.5c-40,64.7-67,160.9-82,298.5c-7,66.3-14,684.9-20,1752.8c-4,907.1-11,1774.4-15,1928.6
		c-5,197.3-4,276.9,4,276.9c6,0,45-109.4,86-243.8c114-371.5,192-598.6,886-2583.6l642-1832.4h453h454l4,2824.1
		c3,2510.7,5,2834.1,20,2931.9c33,233.8,86,330,222,406.3l85,48.1v119.4v121.1h-515h-515V7079v-121.1l93-48.1
		c78-39.8,99-58,138-124.4c83-136,81-104.5,90-1336.6c9-1250.4,28-2636.7,36-2691.4c5-34.8,2-38.1-19-33.2c-22,5-43,61.4-160,444.4
		c-199,651.7-298,941.9-860,2553.8l-513,1467.6l-663,5l-662,3.3V7074z M7517,4221.7l897-2570.4v-252.1l1-253.7h-189h-189
		l-933,2674.9l-934,2673.2l-3,154.2l-3,152.6l228-3.3l228-5L7517,4221.7z"/>
	<path id="path10_4_" class="st0" d="M9935,4437.3V2173.7h880h880v306.8v306.8h-675h-675v713.1v713.1h625h625v306.8V4827h-625h-625
		v630.2v630.2h655h655v306.8v306.8h-860h-860V4437.3z"/>
</g>
<g id="g12_5_" transform="translate(0.000000,1084.000000) scale(0.100000,-0.100000)">
	<path id="path4_5_" class="st0" d="M3010,7631c-346-89.5-645-426.2-802-900.5c-92-280.3-123-497.5-123-857.3
		c1-376.4,39-621.9,142-903.8c178-487.5,422-782.7,1053-1266.9c324-248.7,511-447.7,690-734.6c112-177.4,208-396.3,246-553.9
		c47-200.7,35-573.8-26-824.2c-41-165.8-129-376.4-217-519.1c-144-233.8-279-363.2-478-457.7c-97-46.4-118-51.4-270-53.1
		c-132-1.7-180,5-240,29.8c-150,63-309,200.7-462,401.3c-99,127.7-295,457.7-396,666.6c-46,92.9-85,169.1-88,169.1
		c-15,0-154-210.6-150-227.2c12-48.1,136-341.6,207-485.9c223-456,500-754.5,829-890.5c95-39.8,124-43.1,310-44.8
		c194-1.7,210,0,310,44.8c438,194,794,759.5,902,1431.1c20,129.3,23,185.7,23,446.1c0,383.1-21,510.8-128,794.3
		C4178,3331,3959,3598,3336,4123.6c-218,184.1-436,378.1-486,431.2c-263,283.6-419,562.2-497,888.9c-33,137.6-33,142.6-32,404.6
		c0,245.4,2,276.9,29,422.9c89,479.3,291,797.6,600,941.9c79,38.1,109,43.1,255,43.1c184,1.7,263-24.9,408-134.3
		c221-165.8,446-520.7,576-907.1c20-59.7,39-109.4,42-109.4c10,0,194,174.1,194,184.1c0,18.2-115,310.1-164,412.9
		c-231,490.9-471,774.4-761,897.1C3408,7637.6,3113,7655.8,3010,7631z"/>
	<path id="path6_5_" class="st0" d="M13553,4750.5l-3-2646.7l-325-396.3c-179-217.2-331-406.3-338-417.9c-12-18.2-4-46.4,49-165.8
		c35-79.6,68-141,74-136c7,3.3,132,152.6,278,331.7l267,323.4v-603.6V433.9h115h115v744.6v746.2l420,507.4
		c231,278.6,422,514.1,425,522.4c8,23.2-118,298.5-133,290.2c-6-3.3-164-192.4-350-419.6c-185-225.5-343-416.2-349-422.9
		c-10-11.6-13,222.2-13,1147.6v1162.5h845h845V2573.1V433.9h115h115v3482.5v3482.5h-115h-115V6238V5077.2h-845h-845V6238v1160.8
		h-115h-115L13553,4750.5z"/>
	<path id="path8_5_" class="st0" d="M5515,6760.4c0-101.2,3-124.4,15-124.4c9,0,52-23.2,97-51.4c113-73,158-145.9,189-301.8
		l24-119.4V3642.7c0-2368.1-1-2525.6-18-2613.5c-34-179.1-92-265.3-226-331.7l-81-39.8V546.7V433.9h520h520v114.4v114.4l-32,11.6
		c-57,21.6-162,107.8-197,162.5c-40,64.7-67,160.9-82,298.5c-7,66.3-14,684.9-20,1752.8c-4,907.1-11,1774.4-15,1928.6
		c-5,197.3-4,276.9,4,276.9c6,0,45-109.4,86-243.8c114-371.5,192-598.6,886-2583.6l642-1832.4h453h454l4,2824.1
		c3,2510.7,5,2834.1,20,2931.9c33,233.8,86,330,222,406.3l85,48.1v119.4v121.1h-515h-515v-119.4v-121.1l93-48.1
		c78-39.8,99-58,138-124.4c83-136,81-104.5,90-1336.6c9-1250.4,28-2636.7,36-2691.4c5-34.8,2-38.1-19-33.2c-22,5-43,61.4-160,444.4
		c-199,651.7-298,941.9-860,2553.8l-513,1467.6l-663,5l-662,3.3V6760.4z M7517,3908.1l897-2570.4v-252.1l1-253.7h-189h-189
		l-933,2674.9l-934,2673.2l-3,154.2l-3,152.6l228-3.3l228-5L7517,3908.1z"/>
	<path id="path10_5_" class="st0" d="M9935,4123.6V1860h880h880v306.8v306.8h-675h-675v713.1v713.1h625h625v306.8v306.8h-625h-625
		v630.2v630.2h655h655v306.8v306.8h-860h-860V4123.6z"/>
</g>
</svg>
