<?xml version="1.0" encoding="UTF-8" standalone="no"?>
<svg
   xmlns:dc="http://purl.org/dc/elements/1.1/"
   xmlns:cc="http://creativecommons.org/ns#"
   xmlns:rdf="http://www.w3.org/1999/02/22-rdf-syntax-ns#"
   xmlns:svg="http://www.w3.org/2000/svg"
   xmlns="http://www.w3.org/2000/svg"
   xmlns:sodipodi="http://sodipodi.sourceforge.net/DTD/sodipodi-0.dtd"
   xmlns:inkscape="http://www.inkscape.org/namespaces/inkscape"
   inkscape:version="1.0 (4035a4fb49, 2020-05-01)"
   sodipodi:docname="sneha(2).svg"
   id="svg10"
   preserveAspectRatio="xMidYMid meet"
   viewBox="0 0 203.000000 249.000000"
   height="249.000000pt"
   width="203.000000pt"
   version="1.0">
  <defs
     id="defs14" />
  <sodipodi:namedview
     inkscape:current-layer="svg10"
     inkscape:window-maximized="1"
     inkscape:window-y="-9"
     inkscape:window-x="-9"
     inkscape:cy="166"
     inkscape:cx="135.33333"
     inkscape:zoom="2.5"
     showgrid="false"
     id="namedview12"
     inkscape:window-height="1001"
     inkscape:window-width="1920"
     inkscape:pageshadow="2"
     inkscape:pageopacity="0"
     guidetolerance="10"
     gridtolerance="10"
     objecttolerance="10"
     borderopacity="1"
     bordercolor="#666666"
     pagecolor="#ffffff" />
  <metadata
     id="metadata2">
Created by potrace 1.16, written by Peter Selinger 2001-2019
<rdf:RDF>
  <cc:Work
     rdf:about="">
    <dc:format>image/svg+xml</dc:format>
    <dc:type
       rdf:resource="http://purl.org/dc/dcmitype/StillImage" />
  </cc:Work>
</rdf:RDF>
</metadata>
  <g
     style="fill:#ff6600"
     id="g8"
     stroke="none"
     fill="#000000"
     transform="translate(0.000000,249.000000) scale(0.100000,-0.100000)">
    <path
       style="fill:#ff6600"
       id="path4"
       d="M960 2383 c-184 -29 -311 -83 -407 -175 -72 -69 -137 -155 -177 -235 -21 -42 -29 -50 -46 -46 -11 3 -20 0 -20 -6 0 -6 7 -11 15 -11 18 0 18 5 -1 -72 -9 -36 -24 -68 -35 -76 -26 -18 -24 -38 6 -74 15 -18 25 -42 25 -61 0 -39 34 -183 54 -232 l15 -34 -43 5 c-79 11 -146 -40 -162 -123 -10 -52 27 -117 82 -143 26 -13 51 -34 60 -51 16 -32 89 -93 147 -124 21 -11 36 -26 35 -33 -4 -16 -8 -16 -73 -1 -76 17 -128 -1 -191 -65 -202 -201 -5 -586 237 -463 43 21 52 22 175 15 186 -10 255 -22 478 -81 197 -51 199 -52 222 -88 60 -96 214 -138 321 -89 60 27 83 69 83 150 0 77 -19 115 -80 159 l-41 29 32 16 c18 9 46 16 63 16 40 0 91 31 117 72 15 25 19 45 16 79 -5 64 -37 105 -97 126 -37 13 -52 25 -64 50 -9 18 -35 54 -58 79 -59 64 -57 81 22 194 137 195 190 320 197 470 15 294 -167 634 -397 743 -140 66 -371 102 -510 80z m-29 -106 c26 -20 39 -53 39 -103 0 -37 -3 -45 -12 -36 -21 21 -57 14 -70 -12 -20 -44 15 -82 53 -57 23 14 24 9 4 -29 -9 -17 -22 -30 -31 -30 -8 0 -29 -7 -46 -16 -40 -21 -92 -7 -133 36 -25 26 -29 38 -29 85 2 106 64 175 158 175 28 0 58 -6 67 -13z m310 -40 c67 -44 98 -154 65 -230 -16 -39 -61 -82 -99 -96 -99 -38 -207 28 -207 126 l0 46 65 -7 c36 -4 73 -9 82 -12 12 -3 11 -1 -2 5 -11 5 -40 13 -65 18 l-45 8 55 22 c30 12 48 22 40 22 -8 1 -39 -10 -69 -24 -30 -14 -56 -23 -59 -20 -12 11 32 97 62 120 66 50 124 58 177 22z m-551 -144 c0 -58 49 -109 115 -123 22 -4 31 -12 33 -30 2 -14 14 -34 27 -45 l24 -20 -23 -65 c-13 -36 -32 -103 -42 -148 -14 -65 -21 -81 -33 -78 -39 11 -86 16 -218 25 -79 6 -156 16 -175 25 -36 15 -106 71 -98 78 3 3 77 17 165 32 88 15 162 29 164 32 16 16 -56 7 -312 -41 -47 -8 -21 12 69 54 47 22 83 45 80 50 -3 5 -32 -5 -65 -23 -33 -17 -62 -28 -65 -25 -10 10 24 109 37 109 7 0 68 -11 137 -24 115 -22 142 -25 128 -11 -3 3 -60 16 -127 29 -66 12 -124 26 -127 29 -8 8 28 66 59 96 l25 23 118 -76 c65 -41 121 -72 124 -70 7 8 -21 29 -130 97 -67 42 -90 61 -82 69 15 15 141 57 170 58 17 0 22 -6 22 -27z m318 -143 c66 -89 197 -91 278 -4 l34 35 42 -30 c59 -42 78 -57 78 -63 0 -3 -21 -8 -47 -12 -65 -8 -207 -44 -251 -63 -61 -26 -20 -25 59 1 41 13 117 32 169 40 l95 17 33 -38 c19 -21 47 -65 64 -97 l30 -59 -39 6 c-141 24 -406 58 -411 53 -3 -3 -3 -7 -1 -9 2 -2 102 -17 222 -34 120 -17 223 -35 228 -40 17 -17 29 -126 23 -196 -4 -37 -9 -66 -13 -65 -51 24 -111 64 -111 76 0 8 14 43 31 79 33 70 33 97 -1 40 -22 -36 -80 -87 -100 -87 -6 0 -76 36 -155 81 -80 44 -150 79 -156 77 -7 -2 44 -35 112 -73 168 -93 173 -96 157 -106 -26 -16 -119 -21 -185 -10 -37 6 -134 32 -215 58 -167 53 -158 41 -132 156 25 111 62 197 85 197 26 0 59 35 59 62 0 12 -9 31 -20 43 -18 20 -19 25 -8 50 l13 28 7 -44 c4 -24 16 -55 26 -69z m-644 -319 c4 -5 28 -15 55 -22 48 -12 50 -14 70 -68 69 -187 227 -351 385 -400 185 -57 363 -25 474 86 37 38 93 130 128 211 3 6 124 -69 124 -77 0 -5 -10 -40 -21 -77 -25 -81 -74 -181 -119 -243 l-32 -44 -127 6 c-181 8 -507 73 -706 140 -68 23 -71 26 -121 99 -28 41 -61 102 -73 134 -44 117 -73 264 -53 264 6 0 13 -4 16 -9z m16 -291 c26 -14 70 -97 70 -131 0 -44 -55 -99 -106 -106 -70 -9 -144 50 -144 115 0 90 106 162 180 122z m326 -326 c37 -14 44 -22 54 -60 17 -61 52 -88 105 -81 43 6 78 38 68 62 -7 19 -7 19 157 -1 149 -18 165 -26 202 -98 17 -33 20 -54 16 -125 -5 -100 -35 -168 -101 -228 -121 -109 -326 -124 -489 -36 -83 45 -93 62 -93 161 -1 99 -24 164 -77 219 -26 27 -29 36 -23 64 8 34 104 139 128 139 6 0 30 -7 53 -16z m-241 -153 c93 -42 152 -152 143 -265 -11 -136 -101 -236 -212 -236 -57 0 -85 11 -130 51 -55 48 -79 101 -84 192 -4 72 -2 82 27 142 57 116 157 161 256 116z m1310 -115 c90 -38 100 -177 15 -221 -82 -42 -177 7 -187 95 -5 55 22 104 70 125 41 18 60 18 102 1z m-137 -316 c83 -44 102 -74 102 -161 0 -107 -47 -149 -167 -149 -92 1 -157 31 -197 93 -18 27 -18 27 6 27 13 0 47 7 75 15 89 27 138 110 103 176 -9 16 -7 19 15 19 14 0 42 -9 63 -20z" />
    <path
       style="fill:#ff6600"
       id="path6"
       d="M634 685 c9 -79 33 -131 75 -164 115 -90 242 -100 329 -25 37 31 102 128 102 151 0 5 -64 17 -142 27 -79 10 -190 29 -248 42 -57 13 -109 24 -114 24 -5 0 -6 -24 -2 -55z m163 11 c71 -13 174 -30 231 -37 116 -14 113 -9 56 -95 -45 -68 -106 -106 -172 -107 -121 -1 -240 81 -261 181 -15 73 -14 95 4 88 8 -3 72 -16 142 -30z" />
  </g>
</svg>
