<?xml version="1.0" encoding="UTF-8" standalone="no"?>
<svg
   xmlns:dc="http://purl.org/dc/elements/1.1/"
   xmlns:cc="http://creativecommons.org/ns#"
   xmlns:rdf="http://www.w3.org/1999/02/22-rdf-syntax-ns#"
   xmlns:svg="http://www.w3.org/2000/svg"
   xmlns="http://www.w3.org/2000/svg"
   xmlns:sodipodi="http://sodipodi.sourceforge.net/DTD/sodipodi-0.dtd"
   xmlns:inkscape="http://www.inkscape.org/namespaces/inkscape"
   inkscape:version="1.0 (4035a4fb49, 2020-05-01)"
   sodipodi:docname="snehs.svg"
   id="svg26"
   preserveAspectRatio="xMidYMid meet"
   viewBox="0 0 840.000000 859.000000"
   height="859.000000pt"
   width="840.000000pt"
   version="1.0">
  <defs
     id="defs30" />
  <sodipodi:namedview
     inkscape:current-layer="svg26"
     inkscape:window-maximized="1"
     inkscape:window-y="-9"
     inkscape:window-x="-9"
     inkscape:cy="572.66667"
     inkscape:cx="560"
     inkscape:zoom="0.72467986"
     showgrid="false"
     id="namedview28"
     inkscape:window-height="1001"
     inkscape:window-width="1920"
     inkscape:pageshadow="2"
     inkscape:pageopacity="0"
     guidetolerance="10"
     gridtolerance="10"
     objecttolerance="10"
     borderopacity="1"
     bordercolor="#666666"
     pagecolor="#ffffff" />
  <metadata
     id="metadata2">
Created by potrace 1.16, written by Peter Selinger 2001-2019
<rdf:RDF>
  <cc:Work
     rdf:about="">
    <dc:format>image/svg+xml</dc:format>
    <dc:type
       rdf:resource="http://purl.org/dc/dcmitype/StillImage" />
  </cc:Work>
</rdf:RDF>
</metadata>
  <g
     style="fill:#0000ff"
     id="g24"
     stroke="none"
     fill="#000000"
     transform="translate(0.000000,859.000000) scale(0.100000,-0.100000)">
    <path
       style="fill:#0000ff"
       id="path4"
       d="M3745 8519 c-38 -5 -101 -14 -140 -20 -104 -16 -225 -55 -225 -71 0 -5 -6 -8 -13 -8 -7 0 -23 -9 -35 -20 -12 -11 -26 -20 -32 -20 -5 0 -10 -7 -10 -15 0 -8 -4 -15 -10 -15 -5 0 -10 -9 -10 -20 0 -11 -4 -20 -10 -20 -6 0 -10 -27 -10 -60 0 -33 4 -60 10 -60 6 0 10 -6 10 -12 1 -17 75 -98 89 -98 6 0 11 -4 11 -10 0 -5 7 -10 15 -10 8 0 15 -4 15 -10 0 -5 9 -10 20 -10 11 0 20 -4 20 -10 0 -5 7 -10 15 -10 8 0 23 -5 33 -10 75 -45 326 -102 504 -116 37 -3 68 -11 70 -17 3 -7 1 -68 -4 -137 -9 -133 -17 -150 -65 -150 -13 0 -23 -4 -23 -10 0 -5 -7 -10 -15 -10 -38 0 -148 -141 -157 -201 -1 -13 -10 -25 -18 -26 -175 -20 -322 -42 -400 -60 -113 -26 -208 -52 -232 -64 -10 -5 -27 -9 -37 -9 -11 0 -23 -4 -26 -10 -3 -5 -15 -10 -26 -10 -10 0 -19 -4 -19 -10 0 -5 -8 -10 -18 -10 -10 0 -50 -15 -88 -33 -38 -19 -84 -40 -101 -48 -18 -8 -33 -17 -33 -21 0 -5 -9 -8 -20 -8 -11 0 -20 -4 -20 -10 0 -5 -7 -10 -16 -10 -9 0 -24 -8 -33 -18 -9 -9 -29 -24 -46 -32 -16 -8 -32 -17 -35 -20 -3 -3 -25 -19 -50 -35 -25 -16 -52 -38 -61 -47 -9 -10 -19 -18 -22 -18 -18 0 -287 -268 -287 -286 0 -2 -9 -15 -21 -27 -36 -40 -108 -142 -109 -154 0 -7 -4 -13 -10 -13 -5 0 -10 -7 -10 -15 0 -8 -4 -15 -10 -15 -5 0 -10 -9 -10 -20 0 -11 -4 -20 -9 -20 -7 0 -110 -199 -134 -260 -5 -14 -13 -33 -18 -42 -5 -10 -9 -27 -9 -38 0 -11 -4 -20 -10 -20 -5 0 -10 -13 -10 -29 0 -17 -4 -33 -10 -36 -5 -3 -10 -19 -10 -34 0 -15 -4 -31 -9 -36 -10 -12 -55 -242 -70 -366 -28 -218 -1 -473 81 -759 5 -19 12 -47 15 -63 3 -15 9 -30 14 -33 5 -3 9 -16 9 -30 0 -13 5 -24 10 -24 6 0 10 -13 10 -30 0 -16 3 -30 8 -30 4 0 13 -17 19 -39 15 -49 125 -275 135 -279 4 -2 8 -12 8 -23 0 -10 5 -19 10 -19 6 0 10 -4 10 -10 0 -5 16 -34 35 -64 19 -30 35 -60 35 -66 0 -5 4 -10 9 -10 5 0 14 -13 21 -30 7 -16 15 -30 19 -30 3 0 22 -25 41 -55 19 -30 38 -55 43 -55 4 0 7 -4 7 -10 0 -5 -13 -10 -30 -10 -16 0 -30 5 -30 10 0 6 -9 10 -19 10 -11 0 -23 5 -26 10 -3 5 -16 10 -29 10 -12 0 -26 4 -32 8 -5 5 -36 17 -69 26 -123 36 -145 47 -145 77 0 11 -4 19 -10 19 -5 0 -10 9 -10 20 0 11 -4 20 -10 20 -5 0 -10 5 -10 11 0 16 -107 116 -141 131 -16 7 -29 16 -29 20 0 5 -6 8 -13 8 -8 0 -28 7 -46 16 -41 21 -172 29 -236 16 -66 -14 -125 -35 -125 -44 0 -5 -7 -8 -15 -8 -8 0 -15 -4 -15 -10 0 -5 -7 -10 -14 -10 -23 0 -115 -99 -142 -152 -44 -87 -54 -129 -54 -235 0 -57 4 -105 10 -108 6 -3 10 -14 10 -24 0 -87 217 -291 309 -291 11 0 23 -4 26 -10 3 -5 33 -10 66 -10 65 0 75 -6 132 -82 34 -46 270 -283 317 -319 19 -15 44 -35 55 -46 11 -10 40 -34 65 -53 25 -19 54 -44 66 -55 11 -11 33 -29 48 -40 15 -11 37 -28 48 -38 12 -9 25 -17 29 -17 4 0 19 -11 33 -25 14 -14 30 -25 36 -25 5 0 10 -4 10 -8 0 -5 12 -15 28 -23 15 -8 29 -16 32 -19 9 -10 172 -100 181 -100 5 0 9 -4 9 -10 0 -5 9 -10 20 -10 11 0 20 -3 20 -8 0 -4 15 -13 33 -20 17 -8 52 -24 77 -36 25 -13 82 -38 128 -56 62 -24 82 -37 82 -51 0 -11 5 -19 10 -19 6 0 10 -8 10 -18 0 -10 4 -22 9 -27 5 -6 26 -41 46 -80 21 -38 51 -89 66 -112 16 -23 29 -44 29 -48 0 -3 11 -17 25 -31 14 -14 25 -29 25 -33 0 -7 24 -41 80 -111 11 -14 20 -29 20 -33 0 -4 10 -18 23 -31 12 -13 36 -40 52 -61 17 -21 35 -43 40 -49 6 -6 21 -26 35 -45 35 -51 312 -341 325 -341 3 0 25 -19 49 -43 24 -23 67 -58 94 -77 28 -19 51 -38 52 -42 0 -5 7 -8 15 -8 8 0 15 -4 15 -9 0 -5 9 -13 20 -16 11 -3 26 -12 32 -18 17 -16 178 -107 189 -107 5 0 9 -24 9 -54 0 -30 5 -78 11 -108 23 -113 43 -194 51 -210 4 -10 13 -27 18 -38 6 -11 10 -29 10 -40 0 -11 5 -20 10 -20 6 0 10 -9 10 -20 0 -11 4 -20 9 -20 5 0 14 -14 21 -30 7 -17 15 -30 19 -30 4 0 14 -12 23 -27 25 -42 78 -96 128 -130 62 -42 145 -83 169 -83 11 0 22 -4 25 -9 18 -29 373 -31 441 -2 11 5 40 14 64 21 43 11 151 58 161 70 3 3 19 12 35 20 27 13 133 114 176 167 23 29 66 112 80 158 7 22 17 44 21 49 4 6 8 26 8 46 0 20 4 40 9 46 11 11 20 91 27 253 l6 123 41 -6 c23 -4 76 -9 118 -13 l75 -6 24 -43 c12 -24 27 -44 31 -44 5 0 9 -8 9 -18 0 -10 9 -24 20 -32 11 -8 20 -18 20 -23 0 -5 6 -14 13 -22 6 -7 28 -32 47 -55 52 -62 131 -139 163 -158 15 -9 27 -20 27 -24 0 -4 6 -8 13 -8 7 0 19 -9 27 -20 8 -11 22 -20 32 -20 10 0 18 -4 18 -10 0 -5 9 -10 20 -10 11 0 20 -4 20 -10 0 -5 10 -10 23 -10 13 0 27 -4 32 -8 18 -16 130 -35 205 -35 74 0 213 34 226 54 3 5 14 9 25 9 10 0 19 5 19 10 0 6 7 10 15 10 8 0 15 5 15 10 0 6 9 10 20 10 11 0 20 4 20 9 0 5 8 12 19 16 10 3 29 15 42 26 24 21 84 69 98 79 4 3 18 21 31 40 13 19 31 42 40 50 31 31 75 121 101 205 6 22 15 49 20 60 33 81 19 451 -20 550 -5 11 -17 54 -27 95 -10 41 -29 104 -42 140 -13 36 -27 75 -29 88 -3 12 -9 22 -14 22 -5 0 -9 9 -9 19 0 11 -4 23 -10 26 -5 3 -10 15 -10 26 0 10 -4 19 -10 19 -5 0 -10 7 -10 15 0 9 -5 21 -10 28 -6 7 -26 36 -46 66 -98 145 -227 231 -352 231 -88 0 -107 42 -47 104 59 61 75 104 75 200 0 105 -20 154 -86 216 -64 58 -133 89 -205 91 -19 0 -28 3 -21 6 6 2 12 13 12 24 0 10 3 19 8 19 4 0 12 10 18 23 6 12 36 71 67 131 31 61 57 116 57 123 0 7 5 13 10 13 6 0 10 11 10 25 0 14 5 25 10 25 6 0 10 7 10 15 0 8 4 23 9 33 5 9 14 29 20 45 6 15 15 37 20 50 10 23 37 104 65 194 9 28 16 63 16 77 0 14 5 26 10 26 6 0 10 20 10 44 0 25 5 48 10 51 6 3 10 33 10 66 0 33 4 59 10 59 6 0 10 6 10 14 0 9 15 17 40 21 22 4 42 11 46 16 3 5 14 9 25 9 10 0 19 5 19 10 0 6 8 10 18 10 10 0 24 9 32 20 8 11 20 20 26 20 10 0 49 39 95 97 9 11 22 34 30 51 8 18 17 32 21 32 5 0 8 10 8 23 0 13 5 28 11 34 27 27 6 313 -23 313 -4 0 -8 8 -8 18 0 9 -9 28 -20 42 -11 14 -20 29 -20 33 0 22 -111 112 -170 139 -36 16 -73 34 -82 39 -26 13 -234 11 -261 -3 -45 -23 -57 -28 -67 -28 -28 0 -118 -73 -177 -144 -21 -25 -53 -86 -53 -101 0 -8 -4 -15 -10 -15 -5 0 -10 -15 -10 -34 0 -19 -4 -38 -10 -41 -15 -9 -13 -168 3 -184 10 -10 6 -18 -19 -39 -56 -49 -99 -82 -107 -82 -5 0 -26 -18 -47 -40 -44 -45 -50 -48 -50 -20 0 11 4 20 8 20 4 0 13 21 21 47 7 27 16 57 21 68 4 11 13 40 20 65 7 25 16 54 20 65 4 11 13 45 19 75 7 30 16 73 21 95 44 192 55 312 55 625 0 348 -10 450 -61 651 -9 35 -18 76 -21 92 -3 15 -9 30 -14 33 -5 3 -9 16 -9 30 0 13 -4 24 -10 24 -5 0 -10 14 -10 30 0 17 -4 30 -10 30 -5 0 -10 6 -10 14 0 8 -21 54 -47 103 -26 48 -52 98 -57 110 -6 13 -14 23 -18 23 -5 0 -8 7 -8 15 0 8 -4 15 -10 15 -5 0 -10 6 -10 13 0 13 -17 34 -114 151 -77 93 -248 256 -268 256 -5 0 -22 13 -39 30 -17 16 -40 32 -50 35 -11 4 -19 10 -19 14 0 4 -22 18 -50 30 -27 12 -50 27 -50 32 0 5 -9 9 -19 9 -11 0 -21 3 -23 8 -4 10 -150 79 -199 95 -22 6 -39 15 -39 19 0 5 -11 8 -24 8 -14 0 -28 5 -31 10 -3 6 -17 10 -31 10 -13 0 -24 5 -24 10 0 6 -10 10 -22 10 -20 0 -68 13 -113 31 -11 4 -33 10 -50 12 -16 3 -73 14 -125 25 -52 11 -128 25 -167 32 -71 12 -73 13 -73 41 0 16 -4 29 -10 29 -5 0 -10 9 -10 20 0 11 -4 20 -10 20 -5 0 -10 6 -10 13 0 16 -103 117 -119 117 -5 0 -26 9 -45 21 l-36 21 0 78 c0 42 -3 105 -6 139 l-7 61 226 0 c140 0 228 4 232 10 3 6 40 10 81 10 43 0 74 4 74 10 0 6 20 10 45 10 25 0 45 5 45 10 0 6 8 10 18 10 29 0 114 45 155 83 35 33 37 38 37 96 0 34 -4 61 -10 61 -5 0 -10 7 -10 16 0 16 -104 124 -120 124 -5 0 -15 6 -22 13 -14 12 -40 28 -78 47 -11 6 -29 15 -40 20 -11 6 -29 10 -40 10 -11 0 -20 4 -20 9 0 5 -10 11 -22 14 -13 3 -57 15 -98 27 -91 25 -212 47 -340 62 -123 14 -525 18 -615 7z m555 -59 c203 -18 235 -22 244 -31 6 -5 27 -9 48 -9 21 0 38 -4 38 -10 0 -5 18 -10 40 -10 22 0 40 -4 40 -10 0 -5 9 -10 20 -10 10 0 32 -5 47 -11 117 -48 177 -77 199 -97 10 -9 30 -23 44 -30 34 -18 76 -79 84 -123 5 -31 2 -41 -21 -66 -88 -93 -348 -135 -760 -125 l-73 2 0 35 0 35 175 0 c240 0 375 23 375 62 0 19 -29 25 -45 9 -16 -14 -106 -22 -310 -27 l-190 -5 -13 48 c-19 70 -35 98 -59 101 -26 4 -63 -34 -63 -65 0 -13 -4 -23 -9 -23 -5 0 -11 -19 -15 -42 -3 -24 -8 -60 -12 -81 l-6 -38 -62 6 c-72 8 -264 41 -321 56 -22 6 -55 13 -72 16 -18 3 -33 9 -33 14 0 5 -9 9 -20 9 -11 0 -28 4 -38 9 -9 5 -43 21 -74 37 -62 30 -118 76 -137 111 -14 28 -14 78 0 106 14 27 70 77 87 77 6 0 12 5 12 10 0 6 11 10 24 10 14 0 27 4 30 9 3 5 20 12 38 15 18 4 56 11 83 17 134 27 500 36 705 19z m-115 -397 c5 -10 10 -116 13 -235 l4 -218 -51 0 -51 0 0 35 c0 19 5 35 10 35 6 0 10 38 10 93 0 51 4 97 9 103 5 5 12 36 15 69 10 123 23 160 41 118z m15 -523 c0 -5 16 -10 35 -10 19 0 35 -4 35 -10 0 -5 7 -10 15 -10 17 0 18 -1 78 -51 38 -32 77 -94 77 -123 0 -11 -8 -12 -37 -5 -21 5 -152 9 -290 9 -282 0 -270 -4 -236 68 23 50 100 122 130 122 12 0 23 5 23 10 0 6 35 10 85 10 50 0 85 -4 85 -10z m31 -561 c55 -19 73 -32 129 -91 50 -53 54 -59 70 -95 8 -18 18 -33 22 -33 5 0 8 -13 8 -30 0 -16 4 -30 9 -30 9 0 14 -24 33 -155 18 -131 10 -355 -13 -355 -5 0 -9 -13 -9 -30 0 -16 -4 -30 -10 -30 -5 0 -10 -11 -10 -25 0 -14 -3 -25 -8 -25 -4 0 -14 -15 -21 -32 -13 -29 -111 -134 -153 -163 -31 -22 -58 -35 -73 -35 -8 0 -15 -4 -15 -10 0 -5 -16 -10 -35 -10 -19 0 -35 -4 -35 -10 0 -6 -42 -10 -105 -10 -63 0 -105 4 -105 10 0 6 -16 10 -35 10 -19 0 -35 5 -35 10 0 6 -9 10 -20 10 -11 0 -20 5 -20 10 0 6 -7 10 -16 10 -21 0 -134 114 -134 135 0 8 -4 15 -10 15 -5 0 -10 9 -10 20 0 11 -4 20 -10 20 -5 0 -10 11 -10 25 0 14 -4 25 -10 25 -5 0 -10 18 -10 40 0 22 -4 40 -10 40 -6 0 -10 65 -10 174 0 106 4 177 10 181 6 3 10 24 10 45 0 21 5 42 10 45 6 3 10 19 10 36 0 16 5 29 10 29 6 0 10 9 10 20 0 11 4 20 8 20 4 0 13 15 20 34 26 71 148 174 257 217 57 23 240 16 316 -12z m-976 -18 c70 -33 165 -141 165 -187 0 -8 5 -14 10 -14 6 0 10 -11 10 -24 0 -14 4 -27 9 -30 25 -16 46 -271 33 -398 -15 -136 -22 -178 -33 -178 -5 0 -9 -11 -9 -25 0 -14 -4 -25 -10 -25 -5 0 -10 -7 -10 -15 0 -17 -18 -52 -37 -73 -7 -7 -13 -18 -13 -23 0 -5 -10 -9 -23 -9 -53 0 -151 -48 -183 -90 -47 -60 -46 -60 -143 -60 -54 0 -91 4 -91 10 0 6 -16 10 -35 10 -19 0 -35 5 -35 10 0 6 -7 10 -15 10 -44 0 -150 92 -185 159 -41 81 -50 130 -50 277 0 108 5 159 20 220 20 78 88 234 103 234 4 0 7 4 7 10 0 18 123 150 140 150 5 0 16 7 25 17 57 57 266 83 350 44z m283 -836 c7 -14 12 -35 12 -45 0 -11 5 -20 10 -20 6 0 10 -9 10 -20 0 -11 5 -20 10 -20 6 0 10 -9 10 -20 0 -11 5 -20 10 -20 6 0 10 -7 10 -17 0 -21 113 -133 134 -133 9 0 16 -4 16 -9 0 -15 103 -50 181 -62 94 -14 209 2 301 43 37 17 68 35 68 39 0 5 5 9 11 9 14 0 119 100 119 114 0 7 9 18 20 26 11 8 20 22 20 32 0 10 5 18 10 18 6 0 10 6 10 13 0 8 7 28 16 45 19 39 38 40 154 11 117 -29 187 -52 242 -80 10 -5 27 -9 38 -9 11 0 20 -4 20 -10 0 -5 9 -10 19 -10 11 0 21 -4 23 -8 2 -4 30 -21 63 -37 33 -15 62 -31 65 -34 3 -4 31 -22 63 -41 31 -19 57 -38 57 -42 0 -4 5 -8 10 -8 24 0 250 -226 250 -250 0 -5 4 -10 8 -10 5 0 15 -12 23 -27 8 -16 17 -30 20 -33 17 -15 99 -193 99 -215 0 -8 5 -15 10 -15 6 0 10 -11 10 -24 0 -14 4 -27 9 -30 5 -3 11 -18 14 -33 3 -16 11 -48 16 -73 54 -223 54 -511 1 -830 -6 -36 -14 -86 -17 -112 -3 -27 -9 -48 -14 -48 -5 0 -9 -20 -9 -45 0 -25 -4 -45 -10 -45 -5 0 -10 -18 -10 -40 0 -22 -4 -40 -10 -40 -5 0 -10 -10 -10 -22 0 -12 -4 -35 -10 -52 -28 -90 -54 -164 -65 -191 -41 -100 -50 -118 -64 -133 -9 -9 -56 -30 -106 -45 -49 -16 -98 -33 -107 -38 -10 -5 -29 -9 -42 -9 -14 0 -28 -4 -31 -10 -3 -5 -19 -10 -35 -10 -16 0 -32 -4 -35 -10 -3 -5 -19 -10 -35 -10 -16 0 -32 -4 -35 -10 -3 -5 -19 -10 -35 -10 -16 0 -31 -4 -34 -9 -3 -5 -20 -11 -38 -14 -18 -3 -80 -17 -138 -31 -122 -31 -189 -45 -245 -53 -22 -3 -44 -9 -50 -14 -5 -5 -30 -9 -56 -9 -26 0 -51 -4 -54 -10 -3 -5 -33 -10 -66 -10 -32 0 -59 -4 -59 -9 0 -10 -152 -23 -255 -23 -232 2 -457 12 -474 21 -11 6 -51 11 -90 11 -41 0 -71 4 -71 10 0 6 -28 10 -64 10 -36 0 -68 5 -71 10 -3 6 -22 10 -42 10 -20 0 -50 4 -67 9 -17 5 -67 17 -111 26 -82 17 -197 51 -227 66 -10 5 -27 9 -38 9 -11 0 -20 5 -20 10 0 6 -11 10 -24 10 -14 0 -28 5 -31 10 -3 6 -13 10 -22 10 -22 0 -323 305 -323 326 0 4 -8 14 -18 23 -10 9 -39 45 -64 81 -26 36 -52 70 -58 77 -5 7 -10 16 -10 21 0 4 -8 17 -18 28 -10 10 -25 34 -32 52 -8 17 -17 32 -20 32 -3 0 -32 53 -65 118 -33 64 -63 119 -67 120 -5 2 -8 10 -8 18 0 8 -4 22 -10 32 -25 45 -49 107 -84 217 -21 66 -43 129 -48 140 -21 46 1 453 31 570 5 22 15 60 21 84 6 24 20 67 32 95 11 28 26 63 32 79 6 15 14 27 18 27 5 0 8 9 8 20 0 11 5 20 10 20 6 0 10 7 10 15 0 8 4 15 8 15 5 0 14 11 20 25 6 13 24 39 39 56 54 62 100 109 106 109 4 0 25 17 46 38 22 21 58 47 80 57 22 11 41 23 41 28 0 4 9 7 20 7 11 0 20 5 20 10 0 6 9 10 20 10 11 0 20 5 20 10 0 6 11 10 24 10 13 0 26 4 28 10 2 5 19 11 38 12 30 3 35 0 38 -19 2 -13 7 -23 11 -23 5 0 14 -13 20 -28 11 -27 68 -93 106 -122 70 -54 221 -100 328 -100 l47 0 0 -80 c0 -47 4 -80 10 -80 6 0 10 -7 10 -15 0 -18 8 -29 62 -86 20 -21 43 -39 51 -39 9 0 17 -4 19 -10 2 -5 28 -13 58 -17 l55 -8 6 -200 c3 -110 4 -203 2 -207 -2 -5 -19 -8 -38 -8 -19 0 -37 -4 -40 -10 -3 -5 -28 -10 -55 -10 -27 0 -52 -4 -55 -10 -3 -5 -28 -10 -56 -10 -27 0 -49 -4 -49 -10 0 -5 -16 -10 -36 -10 -20 0 -53 -4 -73 -10 -31 -8 -159 -32 -376 -70 -95 -17 -315 -14 -370 5 -88 29 -165 85 -165 119 0 9 -4 16 -10 16 -5 0 -10 22 -10 49 0 28 5 53 10 56 6 3 10 15 10 26 0 10 4 19 9 19 5 0 11 9 14 20 5 18 14 20 116 20 67 0 111 -4 111 -10 0 -5 7 -10 15 -10 8 0 15 -4 15 -10 0 -18 35 -11 50 10 14 19 26 20 263 20 218 0 248 2 254 16 3 9 0 20 -8 25 -8 5 -143 9 -301 9 -188 0 -296 4 -315 11 -40 16 -163 16 -193 -1 -30 -16 -57 -45 -78 -85 -21 -40 -22 -171 -2 -211 27 -53 117 -124 157 -124 7 0 13 -4 13 -10 0 -5 15 -10 34 -10 19 0 38 -4 41 -10 3 -5 22 -10 41 -10 38 0 64 -18 64 -44 0 -9 4 -16 8 -16 5 0 14 -16 22 -35 8 -19 17 -35 22 -35 4 0 8 -9 8 -20 0 -11 5 -20 10 -20 6 0 10 -4 10 -9 0 -9 63 -118 80 -138 5 -7 10 -17 10 -23 0 -5 5 -10 10 -10 6 0 10 -7 10 -15 0 -8 5 -15 10 -15 6 0 10 -7 10 -15 0 -8 5 -15 10 -15 6 0 10 -6 10 -12 0 -7 11 -26 25 -43 13 -16 28 -34 33 -40 4 -5 23 -32 42 -60 18 -27 41 -57 50 -65 9 -8 21 -23 26 -33 32 -57 329 -357 354 -357 6 0 10 -3 10 -7 0 -5 21 -21 48 -38 26 -16 49 -32 52 -35 3 -4 25 -17 50 -31 25 -13 47 -27 48 -31 2 -5 12 -8 22 -8 10 0 22 -4 25 -10 3 -5 15 -10 26 -10 10 0 19 -4 19 -8 0 -5 40 -18 90 -30 109 -27 265 -29 355 -6 33 9 71 18 85 21 25 4 60 17 92 34 10 5 27 9 38 9 11 0 20 5 20 10 0 6 9 10 20 10 11 0 20 5 20 10 0 6 6 10 14 10 14 0 146 67 156 79 3 3 17 12 33 20 15 8 27 18 27 23 0 4 7 8 15 8 8 0 15 4 15 8 0 5 12 15 28 23 15 8 37 23 48 34 12 11 34 29 49 40 16 11 50 40 75 65 26 25 76 72 111 106 91 86 239 242 239 252 0 4 15 24 33 44 17 19 41 47 52 62 11 15 28 37 38 49 10 12 26 34 35 50 9 15 20 27 24 27 4 0 8 7 8 15 0 8 5 15 10 15 6 0 10 6 10 13 0 7 9 22 19 34 11 11 40 63 65 115 41 83 46 102 46 161 0 59 -3 71 -27 98 -16 17 -43 37 -61 44 -125 53 -573 80 -907 55 -175 -13 -580 -50 -660 -61 -33 -4 -90 -11 -127 -15 l-66 -7 -11 41 c-7 24 -10 106 -9 199 l3 157 54 28 c30 16 64 39 75 52 46 51 56 67 56 86 0 11 5 20 10 20 6 0 10 35 10 85 0 50 -4 85 -10 85 -5 0 -10 7 -10 15 0 46 -109 155 -155 155 -22 0 -19 31 9 81 13 24 30 63 37 87 14 49 21 52 37 17z m-118 -285 c0 -5 7 -10 16 -10 26 0 43 -31 43 -75 0 -44 -17 -75 -42 -75 -8 0 -17 -6 -20 -12 -3 -10 -9 -10 -26 0 -11 6 -26 12 -32 12 -21 0 -49 43 -49 75 0 32 28 75 49 75 6 0 11 5 11 10 0 6 11 10 25 10 14 0 25 -4 25 -10z m3565 -945 c32 -14 66 -34 75 -45 10 -11 21 -20 25 -20 12 0 74 -72 87 -102 7 -15 16 -28 19 -28 7 0 10 -10 31 -100 15 -68 10 -163 -13 -217 -35 -85 -38 -89 -105 -157 -52 -53 -122 -96 -154 -96 -11 0 -22 -4 -25 -10 -3 -6 -52 -10 -111 -10 -63 0 -104 4 -104 10 0 6 -9 10 -19 10 -24 0 -90 35 -127 66 -15 13 -30 24 -33 24 -3 0 -17 17 -31 38 -14 20 -28 39 -31 42 -12 9 -36 65 -49 112 -7 26 -11 82 -9 130 3 69 9 94 36 149 57 115 159 200 273 226 81 19 195 9 265 -22z m-5385 -755 c0 -5 14 -10 30 -10 17 0 30 -4 30 -10 0 -5 7 -10 15 -10 37 0 175 -144 175 -182 0 -10 5 -18 10 -18 6 0 10 -13 10 -30 0 -16 5 -30 10 -30 6 0 10 -38 10 -95 0 -57 -4 -95 -10 -95 -5 0 -10 -13 -10 -30 0 -16 -4 -30 -10 -30 -5 0 -10 -9 -10 -20 0 -11 -4 -20 -10 -20 -5 0 -10 -6 -10 -13 0 -15 -93 -117 -107 -117 -5 0 -18 -8 -29 -17 -23 -22 -71 -39 -143 -53 -93 -17 -231 16 -289 70 -12 11 -25 20 -29 20 -5 0 -19 14 -33 31 -14 17 -31 37 -37 44 -7 8 -13 18 -13 23 0 6 -4 12 -8 14 -14 5 -52 142 -52 186 0 83 42 206 82 243 10 9 18 20 18 24 0 24 135 115 170 115 11 0 20 5 20 10 0 6 43 10 110 10 67 0 110 -4 110 -10z m2434 -990 c25 -12 46 -26 46 -31 0 -5 9 -9 20 -9 14 0 20 -7 20 -22 0 -17 -3 -19 -12 -10 -7 7 -36 12 -65 12 -29 0 -53 5 -53 10 0 6 -53 10 -140 10 -77 0 -140 3 -140 8 0 7 76 42 120 54 45 12 155 0 204 -22z m979 -106 c115 -33 237 -83 237 -96 0 -5 9 -8 20 -8 11 0 20 -4 20 -9 0 -5 14 -14 30 -21 17 -7 30 -16 30 -21 0 -4 8 -10 18 -13 53 -17 262 -261 262 -305 0 -6 5 -11 10 -11 6 0 10 -9 10 -20 0 -11 5 -20 10 -20 6 0 10 -11 10 -25 0 -14 4 -25 8 -25 4 0 14 -21 21 -47 8 -27 17 -52 21 -58 9 -13 17 -53 36 -185 11 -83 12 -124 4 -195 -11 -93 -25 -157 -41 -187 -5 -10 -9 -25 -9 -33 0 -8 -4 -15 -10 -15 -5 0 -10 -9 -10 -20 0 -11 -4 -20 -10 -20 -5 0 -10 -9 -10 -20 0 -11 -4 -20 -10 -20 -5 0 -10 -5 -10 -11 0 -37 -215 -269 -249 -269 -5 0 -11 -4 -13 -8 -10 -25 -278 -142 -325 -142 -13 0 -23 -4 -23 -10 0 -5 -20 -10 -45 -10 -25 0 -45 -4 -45 -9 0 -13 -136 -23 -320 -23 -191 0 -340 10 -340 23 0 5 -22 9 -49 9 -28 0 -52 4 -55 9 -3 5 -20 11 -38 14 -55 9 -92 18 -113 27 -11 5 -41 16 -67 24 -60 20 -142 58 -146 68 -2 4 -10 8 -18 8 -8 0 -24 9 -36 20 -12 11 -28 20 -35 20 -7 0 -13 5 -13 10 0 6 -5 10 -10 10 -13 0 -110 68 -131 92 -9 10 -20 18 -23 18 -4 0 -13 6 -21 13 -7 6 -32 28 -56 47 -125 101 -322 327 -366 418 -8 17 -19 32 -24 32 -5 0 -9 9 -9 20 0 11 -4 20 -8 20 -13 0 -77 129 -101 202 -17 53 -21 92 -21 187 0 121 11 188 49 286 37 97 45 115 53 115 4 0 8 6 8 13 0 12 26 47 81 110 28 33 11 33 164 -4 48 -11 136 -28 188 -36 l37 -5 0 -89 c0 -48 5 -101 11 -116 30 -72 39 -90 59 -113 12 -14 27 -32 34 -41 18 -27 104 -77 162 -95 115 -36 289 6 366 88 42 44 88 118 88 140 0 10 5 18 10 18 6 0 10 45 10 115 l0 115 32 0 c17 0 57 4 87 10 31 5 85 14 121 19 150 24 256 43 275 51 40 17 136 10 228 -16z m-933 -24 c93 -24 120 -35 120 -51 0 -13 -57 -8 -158 15 -56 13 -108 16 -225 13 -84 -2 -164 -7 -179 -12 -31 -8 -38 7 -14 31 39 39 309 41 456 4z m-70 -90 c0 -5 17 -10 38 -10 20 0 66 -11 102 -24 l65 -23 -3 -48 c-6 -83 -91 -225 -136 -225 -9 0 -16 -3 -16 -8 0 -10 -47 -29 -92 -37 l-38 -7 0 66 c0 58 3 70 25 92 30 30 32 53 6 82 -26 31 -84 30 -116 -3 -32 -31 -31 -46 0 -75 23 -22 26 -31 23 -90 l-3 -65 -40 3 c-22 2 -41 8 -43 13 -2 5 -12 9 -23 9 -10 0 -19 5 -19 10 0 6 -7 10 -15 10 -8 0 -15 5 -15 10 0 6 -6 10 -12 10 -7 0 -22 14 -33 30 -11 16 -23 30 -27 30 -5 0 -8 7 -8 15 0 8 -4 15 -10 15 -5 0 -10 14 -10 30 0 17 -4 30 -10 30 -6 0 -10 32 -10 75 l0 75 34 0 c19 0 38 5 41 10 4 6 73 10 176 10 106 0 169 -4 169 -10z m2853 -626 c20 -3 37 -10 37 -15 0 -5 9 -9 20 -9 11 0 20 -4 20 -10 0 -5 5 -10 10 -10 12 0 120 -106 120 -118 0 -4 9 -14 20 -22 11 -8 20 -22 20 -32 0 -10 3 -18 8 -18 12 0 102 -188 102 -215 0 -8 5 -15 10 -15 6 0 10 -13 10 -28 0 -15 4 -32 8 -37 10 -12 32 -84 61 -200 35 -141 46 -381 23 -485 -19 -82 -35 -134 -44 -145 -4 -5 -8 -17 -8 -27 0 -10 -4 -18 -10 -18 -5 0 -10 -9 -10 -20 0 -11 -4 -20 -8 -20 -4 0 -16 -15 -27 -32 -52 -88 -256 -248 -337 -265 -16 -3 -28 -9 -28 -14 0 -5 -11 -9 -25 -9 -14 0 -25 -4 -25 -10 0 -6 -52 -10 -135 -10 -83 0 -135 4 -135 10 0 6 -13 10 -30 10 -16 0 -30 5 -30 10 0 6 -6 10 -14 10 -57 0 -296 202 -362 305 -10 17 -27 39 -36 49 -10 11 -18 26 -18 33 0 7 -4 13 -10 13 -5 0 -10 7 -10 15 0 8 -4 15 -10 15 -5 0 -10 9 -10 20 0 17 7 20 40 20 22 0 40 5 40 10 0 6 18 10 39 10 22 0 43 5 46 10 3 6 15 10 26 10 10 0 27 4 37 9 74 37 106 51 118 51 8 0 14 4 14 8 0 5 18 17 39 27 22 10 55 32 74 49 19 17 47 42 63 56 54 46 144 181 144 216 0 8 5 14 10 14 6 0 10 9 10 19 0 11 5 23 10 26 6 3 10 17 10 30 0 13 5 27 10 30 6 3 10 17 10 31 0 13 4 32 9 42 17 31 31 158 31 274 -1 97 -8 168 -37 337 l-5 33 38 -5 c22 -4 56 -9 77 -13z m-1216 -1406 c-8 -205 -29 -313 -83 -425 -15 -32 -35 -65 -44 -73 -8 -8 -21 -26 -28 -40 -14 -26 -104 -104 -150 -130 -15 -8 -28 -18 -30 -22 -2 -5 -12 -8 -23 -8 -10 0 -19 -4 -19 -10 0 -5 -8 -10 -18 -10 -10 0 -22 -4 -28 -8 -11 -10 -62 -26 -134 -43 -108 -26 -440 -9 -440 23 0 4 -7 8 -15 8 -14 0 -53 18 -65 30 -3 3 -18 12 -34 20 -68 35 -206 207 -206 256 0 8 -4 14 -8 14 -4 0 -13 21 -21 48 -7 26 -16 56 -21 67 -9 20 -13 42 -30 145 -4 30 -12 70 -15 88 -7 31 -6 32 23 32 17 0 32 -4 34 -8 6 -16 149 -55 308 -83 75 -14 281 -31 360 -31 118 0 277 22 365 50 45 14 130 55 133 64 2 4 10 8 17 8 20 0 89 75 116 125 15 28 31 45 42 45 17 0 18 -9 14 -132z" />
    <path
       style="fill:#0000ff"
       id="path6"
       d="M3830 8390 c-8 -5 -34 -10 -57 -10 -23 0 -52 -4 -65 -9 -13 -5 -35 -12 -50 -15 -19 -5 -28 -13 -28 -26 0 -24 -4 -23 73 -6 111 26 193 36 280 36 94 0 117 5 117 26 0 11 -25 14 -127 14 -71 0 -135 -5 -143 -10z" />
    <path
       style="fill:#0000ff"
       id="path8"
       d="M3933 6218 c-13 -6 -23 -19 -23 -30 0 -10 -4 -18 -10 -18 -14 0 -12 -96 3 -122 30 -54 68 -62 103 -21 43 51 44 125 0 176 -25 29 -38 32 -73 15z" />
    <path
       style="fill:#0000ff"
       id="path10"
       d="M3204 6213 c-24 -24 -26 -32 -22 -89 4 -72 26 -104 68 -104 34 0 55 23 69 75 19 71 -17 145 -71 145 -9 0 -29 -12 -44 -27z" />
    <path
       style="fill:#0000ff"
       id="path12"
       d="M4875 5875 c-38 -14 -78 -25 -87 -25 -10 0 -18 -4 -18 -10 0 -5 -13 -10 -30 -10 -16 0 -30 -4 -30 -10 0 -5 -13 -10 -30 -10 -16 0 -30 -4 -30 -10 0 -5 -9 -10 -20 -10 -10 0 -29 -4 -42 -9 -13 -6 -63 -22 -113 -37 -49 -15 -94 -31 -99 -36 -6 -4 -23 -8 -38 -8 -15 0 -28 -4 -28 -10 0 -5 -13 -10 -30 -10 -16 0 -30 -4 -30 -10 0 -5 -9 -10 -19 -10 -23 0 -32 -18 -20 -41 7 -13 15 -14 53 -5 25 6 46 14 46 18 0 5 14 8 30 8 17 0 30 5 30 10 0 6 13 10 29 10 17 0 33 5 36 10 3 6 17 10 30 10 13 0 27 5 30 10 3 6 15 10 26 10 10 0 27 4 37 9 26 14 298 101 316 101 9 0 16 5 16 10 0 6 14 10 30 10 17 0 30 5 30 10 0 6 6 10 14 10 20 0 25 22 10 37 -16 17 -16 17 -99 -12z" />
    <path
       style="fill:#0000ff"
       id="path14"
       d="M2230 5790 c0 -11 2 -20 4 -20 1 0 34 -11 72 -25 38 -14 79 -25 91 -25 13 0 23 -4 23 -10 0 -5 13 -10 29 -10 17 0 33 -4 36 -10 3 -5 19 -10 36 -10 16 0 29 -4 29 -10 0 -5 14 -10 30 -10 17 0 30 -4 30 -10 0 -5 13 -10 29 -10 17 0 33 -4 36 -10 3 -5 15 -10 26 -10 11 0 66 -16 123 -35 57 -19 111 -35 119 -35 12 0 27 19 27 35 0 7 -64 35 -81 35 -10 0 -21 5 -24 10 -3 6 -19 10 -36 10 -16 0 -29 5 -29 10 0 6 -13 10 -30 10 -16 0 -30 5 -30 10 0 6 -13 10 -29 10 -17 0 -33 5 -36 10 -3 6 -15 10 -26 10 -10 0 -67 16 -126 35 -59 19 -115 35 -125 35 -10 0 -18 5 -18 10 0 6 -13 10 -29 10 -17 0 -33 5 -36 10 -3 6 -24 10 -46 10 -32 0 -39 -3 -39 -20z" />
    <path
       style="fill:#0000ff"
       id="path16"
       d="M4935 5574 c-44 -7 -111 -18 -150 -24 -141 -24 -191 -31 -247 -36 -32 -3 -58 -10 -58 -15 0 -5 -29 -9 -64 -9 -36 0 -68 -4 -71 -10 -3 -5 -24 -10 -46 -10 -49 0 -74 -20 -56 -44 13 -17 38 -15 277 25 131 22 186 30 240 35 30 3 59 10 65 15 5 5 35 9 67 9 32 0 58 4 58 10 0 6 24 10 53 10 59 0 94 18 84 44 -7 19 -36 19 -152 0z" />
    <path
       style="fill:#0000ff"
       id="path18"
       d="M2120 5491 c0 -24 46 -41 115 -41 28 0 76 -4 106 -9 30 -6 131 -17 224 -26 94 -9 194 -21 224 -26 77 -13 117 -11 130 5 23 27 -17 40 -174 57 -49 6 -126 13 -170 16 -44 2 -84 9 -90 14 -5 5 -46 9 -91 9 -46 0 -86 5 -89 10 -3 6 -46 10 -96 10 -81 0 -89 -2 -89 -19z" />
    <path
       style="fill:#0000ff"
       id="path20"
       d="M4480 5290 c-36 -4 -99 -8 -141 -9 -57 -1 -78 -5 -82 -15 -15 -38 9 -40 416 -27 216 7 400 15 410 17 9 3 17 14 17 25 0 18 -9 19 -277 17 -153 0 -307 -4 -343 -8z" />
    <path
       style="fill:#0000ff"
       id="path22"
       d="M5077 2363 c-28 -27 -269 -89 -389 -100 -32 -2 -58 -9 -58 -14 0 -5 -38 -9 -84 -9 -47 0 -87 -4 -90 -9 -15 -23 -543 -32 -761 -13 -77 7 -170 15 -207 18 -38 3 -68 10 -68 15 0 5 -22 9 -48 9 -26 0 -52 4 -58 9 -5 5 -39 11 -76 14 -76 7 -93 -3 -83 -50 13 -58 56 -163 67 -163 5 0 8 -9 8 -20 0 -11 5 -20 10 -20 6 0 10 -9 10 -20 0 -11 5 -20 10 -20 6 0 10 -7 10 -15 0 -8 4 -15 9 -15 5 0 13 -9 16 -20 3 -11 12 -26 19 -32 6 -7 25 -31 41 -53 38 -51 139 -152 190 -190 22 -16 46 -35 53 -41 6 -7 21 -16 32 -19 11 -3 20 -11 20 -16 0 -5 7 -9 15 -9 8 0 15 -4 15 -10 0 -5 9 -10 19 -10 11 0 21 -4 23 -9 4 -11 193 -101 212 -101 8 0 18 -4 21 -10 3 -5 17 -10 31 -10 13 0 24 -4 24 -10 0 -5 13 -10 29 -10 17 0 33 -4 36 -10 3 -5 19 -10 34 -10 15 0 31 -4 37 -9 22 -21 279 -40 396 -30 131 12 178 20 178 30 0 5 14 9 30 9 17 0 30 5 30 10 0 6 14 10 30 10 17 0 30 5 30 10 0 6 9 10 20 10 11 0 20 5 20 10 0 6 6 10 14 10 46 0 266 190 266 230 0 6 5 10 10 10 6 0 10 9 10 20 0 11 4 20 8 20 12 0 34 84 41 156 8 69 -3 213 -18 254 -5 14 -15 46 -22 73 -7 26 -17 47 -21 47 -4 0 -8 6 -8 14 0 8 -10 33 -22 55 -20 37 -44 51 -61 34z m20 -83 c3 -11 9 -20 14 -20 5 0 9 -11 9 -24 0 -14 5 -28 10 -31 6 -3 10 -17 10 -31 0 -13 4 -24 9 -24 19 0 40 -275 22 -293 -6 -6 -11 -26 -11 -44 0 -18 -4 -33 -10 -33 -5 0 -10 -11 -10 -25 0 -14 -4 -25 -9 -25 -5 0 -13 -9 -16 -20 -7 -23 -127 -150 -141 -150 -6 0 -19 -8 -30 -18 -40 -37 -219 -112 -266 -112 -16 0 -28 -4 -28 -9 0 -6 -118 -20 -200 -23 -28 0 -215 21 -265 30 -66 13 -249 73 -253 84 -2 4 -12 8 -22 8 -10 0 -22 5 -25 10 -3 6 -15 10 -26 10 -10 0 -19 5 -19 10 0 6 -9 10 -20 10 -11 0 -20 5 -20 10 0 6 -9 10 -20 10 -11 0 -20 5 -20 10 0 6 -5 10 -10 10 -6 0 -36 16 -66 35 -30 19 -57 35 -60 35 -3 0 -19 14 -34 30 -15 17 -31 30 -35 30 -7 0 -90 85 -145 147 -35 40 -120 168 -120 182 0 6 -4 11 -10 11 -5 0 -10 9 -10 20 0 11 -4 20 -10 20 -5 0 -10 7 -10 15 0 8 -4 24 -10 35 -5 11 -15 29 -21 41 -10 20 -9 21 43 16 29 -2 97 -12 152 -21 306 -50 633 -59 981 -26 207 20 277 29 385 50 30 6 74 14 98 17 23 3 42 9 42 14 0 5 16 9 35 9 19 0 35 5 35 10 0 6 11 10 24 10 14 0 28 5 31 10 11 18 47 11 52 -10z" />
  </g>
</svg>
