<?xml version="1.0" encoding="UTF-8" standalone="no"?>
<svg
   xmlns:dc="http://purl.org/dc/elements/1.1/"
   xmlns:cc="http://creativecommons.org/ns#"
   xmlns:rdf="http://www.w3.org/1999/02/22-rdf-syntax-ns#"
   xmlns:svg="http://www.w3.org/2000/svg"
   xmlns="http://www.w3.org/2000/svg"
   xmlns:sodipodi="http://sodipodi.sourceforge.net/DTD/sodipodi-0.dtd"
   xmlns:inkscape="http://www.inkscape.org/namespaces/inkscape"
   inkscape:version="1.0 (4035a4fb49, 2020-05-01)"
   sodipodi:docname="title-card.svg"
   id="svg30"
   preserveAspectRatio="xMidYMid meet"
   viewBox="0 0 512.000000 330.000000"
   height="330.000000pt"
   width="512.000000pt"
   version="1.0">
  <defs
     id="defs34" />
  <sodipodi:namedview
     inkscape:current-layer="svg30"
     inkscape:window-maximized="1"
     inkscape:window-y="-9"
     inkscape:window-x="-9"
     inkscape:cy="220"
     inkscape:cx="341.33333"
     inkscape:zoom="1.7695313"
     showgrid="false"
     id="namedview32"
     inkscape:window-height="1001"
     inkscape:window-width="1920"
     inkscape:pageshadow="2"
     inkscape:pageopacity="0"
     guidetolerance="10"
     gridtolerance="10"
     objecttolerance="10"
     borderopacity="1"
     bordercolor="#666666"
     pagecolor="#ffffff" />
  <metadata
     id="metadata2">
Created by potrace 1.16, written by Peter Selinger 2001-2019
<rdf:RDF>
  <cc:Work
     rdf:about="">
    <dc:format>image/svg+xml</dc:format>
    <dc:type
       rdf:resource="http://purl.org/dc/dcmitype/StillImage" />
  </cc:Work>
</rdf:RDF>
</metadata>
  <g
     style="fill:#00ff00"
     id="g28"
     stroke="none"
     fill="#000000"
     transform="translate(0.000000,330.000000) scale(0.100000,-0.100000)">
    <path
       style="fill:#00ff00"
       id="path4"
       d="M469 3251 c-20 -16 -21 -21 -10 -34 10 -13 17 -14 31 -5 14 9 22 9 34 -1 38 -32 4 -79 -66 -91 -52 -10 -119 2 -199 34 -32 13 -59 21 -59 17 0 -3 33 -19 72 -36 102 -41 172 -44 268 -11 178 63 331 88 409 66 50 -13 104 -61 99 -87 -4 -19 -41 -21 -133 -9 -22 3 -31 3 -20 -1 11 -3 39 -14 63 -25 50 -22 90 -18 118 13 18 20 18 22 -2 57 -34 58 -82 77 -189 76 -83 -1 -140 -12 -308 -61 -15 -5 -16 -2 -7 19 15 32 -2 76 -35 88 -35 13 -39 13 -66 -9z" />
    <path
       style="fill:#00ff00"
       id="path6"
       d="M4565 3248 c-24 -18 -27 -26 -22 -61 5 -33 3 -38 -11 -34 -265 82 -396 85 -469 12 -46 -46 -45 -81 3 -101 38 -16 39 -16 134 22 l35 15 -40 -6 c-22 -4 -58 -7 -80 -8 -34 -2 -40 1 -43 20 -8 55 100 101 210 89 73 -7 200 -39 296 -73 59 -21 84 -25 135 -21 59 5 197 53 197 69 0 4 -18 -2 -41 -13 -52 -25 -166 -49 -199 -42 -78 17 -110 47 -90 84 11 21 44 27 55 10 9 -15 25 -2 25 19 0 16 -37 41 -59 41 -5 0 -21 -10 -36 -22z" />
    <path
       style="fill:#00ff00"
       id="path8"
       d="M4939 3235 c-15 -8 -29 -21 -33 -30 -5 -14 -4 -14 16 0 67 47 159 -25 100 -78 -25 -23 -35 -21 -27 6 3 12 -18 -21 -46 -73 -66 -118 -68 -153 -17 -255 73 -144 96 -290 59 -363 -31 -60 -89 -80 -115 -39 -8 13 -7 24 7 48 19 33 21 57 9 77 -6 8 -9 3 -9 -16 0 -15 -10 -42 -22 -58 -52 -70 17 -131 100 -89 49 26 69 69 69 153 0 74 -33 198 -66 249 -20 31 -19 31 31 25 58 -6 98 17 93 55 -4 31 -28 49 -53 39 -14 -5 -15 -9 -5 -21 18 -21 -4 -45 -40 -45 -71 0 -92 104 -43 212 22 49 33 62 64 74 50 20 69 63 45 99 -16 25 -53 45 -79 45 -7 -1 -24 -7 -38 -15z" />
    <path
       style="fill:#00ff00"
       id="path10"
       d="M1080 3190 c0 -6 505 -11 1470 -12 1171 -2 1470 0 1470 10 0 9 -301 12 -1470 12 -967 0 -1470 -3 -1470 -10z" />
    <path
       style="fill:#00ff00"
       id="path12"
       d="M151 3070 c35 -69 43 -96 43 -142 1 -70 -29 -111 -79 -106 -32 3 -48 34 -24 49 11 6 10 9 -3 14 -31 12 -53 1 -56 -28 -5 -46 23 -69 80 -65 27 2 48 3 48 3 0 0 -13 -32 -29 -70 -54 -134 -64 -231 -31 -301 32 -65 117 -96 153 -56 23 25 21 57 -4 92 -14 18 -20 38 -17 54 6 29 -7 26 -15 -3 -2 -11 2 -32 10 -47 37 -73 -19 -114 -76 -56 -71 71 -60 204 34 406 46 98 45 126 -11 233 -25 49 -50 93 -56 98 -5 6 9 -28 33 -75z" />
    <path
       style="fill:#00ff00"
       id="path14"
       d="M100 2345 c0 -3 0 -321 0 -707 0 -621 1 -703 15 -706 13 -3 15 77 15 707 0 625 -2 711 -15 711 -8 0 -15 -2 -15 -5z" />
    <path
       style="fill:#00ff00"
       id="path16"
       d="M4990 1640 c0 -624 2 -710 15 -710 13 0 15 86 15 710 0 624 -2 710 -15 710 -13 0 -15 -86 -15 -710z" />
    <path
       style="fill:#00ff00"
       id="path18"
       d="M165 931 c-63 -28 -80 -61 -80 -156 0 -61 7 -99 28 -162 16 -46 33 -85 38 -88 22 -14 7 -26 -25 -20 -22 5 -44 1 -65 -10 -27 -14 -32 -21 -29 -47 3 -35 27 -54 53 -44 14 5 16 9 7 18 -18 18 -15 36 7 48 51 27 108 -45 98 -123 -3 -21 -24 -78 -47 -125 -53 -111 -36 -95 24 23 28 54 46 102 46 123 0 19 -18 75 -40 124 -54 120 -85 242 -76 302 11 73 76 137 119 114 19 -10 24 -63 7 -73 -12 -8 -13 -72 -1 -79 4 -3 6 6 3 20 -3 16 3 36 17 54 29 40 27 74 -5 99 -32 25 -29 25 -79 2z" />
    <path
       style="fill:#00ff00"
       id="path20"
       d="M4865 925 c-30 -29 -28 -60 6 -103 12 -16 17 -33 13 -45 -4 -13 -2 -17 5 -13 16 10 14 48 -5 74 -18 26 -12 67 10 75 23 9 78 -26 98 -63 37 -72 21 -175 -59 -360 -44 -101 -45 -107 -34 -149 11 -42 100 -216 101 -198 0 5 -18 45 -40 89 -32 65 -40 92 -40 135 0 47 4 59 29 84 33 33 52 36 75 13 12 -12 13 -20 6 -35 -9 -15 -7 -21 6 -26 44 -17 71 49 33 83 -15 13 -35 19 -68 18 l-47 0 35 80 c30 69 36 95 39 171 3 98 -10 137 -60 169 -46 30 -75 30 -103 1z" />
    <path
       style="fill:#00ff00"
       id="path22"
       d="M945 220 c-22 -11 -49 -17 -60 -15 -16 4 -15 3 3 -7 19 -9 30 -9 55 1 53 21 71 23 92 7 18 -14 19 -17 5 -42 -49 -87 -247 -87 -490 2 -104 37 -172 36 -276 -7 -113 -47 -112 -53 2 -13 82 29 109 34 157 30 63 -5 107 -33 107 -67 0 -26 -37 -44 -56 -28 -13 10 -17 10 -24 -1 -15 -25 8 -50 45 -50 45 0 79 40 69 83 -6 28 -5 29 17 23 162 -47 218 -57 311 -54 108 3 136 16 172 78 l20 33 -28 23 c-32 28 -66 29 -121 4z" />
    <path
       style="fill:#00ff00"
       id="path24"
       d="M4052 224 c-27 -19 -28 -47 -2 -84 47 -66 193 -79 365 -35 54 14 105 30 115 35 16 8 17 5 13 -33 -4 -33 -1 -46 15 -60 25 -23 80 -19 96 5 15 24 -6 47 -27 29 -33 -27 -67 17 -42 55 33 51 145 54 263 7 35 -14 65 -23 68 -20 2 2 -34 19 -82 37 -103 40 -182 44 -254 12 -129 -58 -360 -90 -437 -61 -69 26 -98 92 -47 105 16 4 39 0 60 -10 40 -19 63 -20 84 -5 12 8 10 9 -8 4 -14 -4 -37 1 -63 14 -47 25 -86 27 -117 5z" />
    <path
       style="fill:#00ff00"
       id="path26"
       d="M1080 103 c0 -10 301 -13 1470 -13 1169 0 1470 3 1470 13 0 9 -301 12 -1470 12 -1169 0 -1470 -3 -1470 -12z" />
  </g>
</svg>
